<svg class="animated" id="freepik_stories-formula" xmlns="http://www.w3.org/2000/svg" viewBox="0 0 500 500" version="1.1" xmlns:xlink="http://www.w3.org/1999/xlink" xmlns:svgjs="http://svgjs.com/svgjs"><style>svg#freepik_stories-formula:not(.animated) .animable {opacity: 0;}svg#freepik_stories-formula.animated #freepik--speech-bubble--inject-116 {animation: 1.5s Infinite  linear shake;animation-delay: 0s;}            @keyframes shake {                10%, 90% {                    transform: translate3d(-1px, 0, 0);                  }                  20%, 80% {                    transform: translate3d(2px, 0, 0);                  }                  30%, 50%, 70% {                    transform: translate3d(-4px, 0, 0);                  }                  40%, 60% {                    transform: translate3d(4px, 0, 0);                  }            }        </style><g id="freepik--background-complete--inject-116" class="animable" style="transform-origin: 250px 228.23px;"><rect y="382.4" width="500" height="0.25" style="fill: rgb(235, 235, 235); transform-origin: 250px 382.525px;" id="elmhiyeq3b60e" class="animable"></rect><rect x="416.78" y="398.49" width="33.12" height="0.25" style="fill: rgb(235, 235, 235); transform-origin: 433.34px 398.615px;" id="elbtnq6t1u4kp" class="animable"></rect><rect x="322.53" y="401.21" width="8.69" height="0.25" style="fill: rgb(235, 235, 235); transform-origin: 326.875px 401.335px;" id="elpnota41hooj" class="animable"></rect><rect x="396.59" y="389.21" width="19.19" height="0.25" style="fill: rgb(235, 235, 235); transform-origin: 406.185px 389.335px;" id="eldqs753rz4wi" class="animable"></rect><rect x="52.46" y="390.89" width="43.19" height="0.25" style="fill: rgb(235, 235, 235); transform-origin: 74.055px 391.015px;" id="eltlkk6hb8zt" class="animable"></rect><rect x="104.56" y="390.89" width="6.33" height="0.25" style="fill: rgb(235, 235, 235); transform-origin: 107.725px 391.015px;" id="el1mbtlr2vl42" class="animable"></rect><rect x="131.47" y="395.11" width="93.68" height="0.25" style="fill: rgb(235, 235, 235); transform-origin: 178.31px 395.235px;" id="elpyvd7cc23ih" class="animable"></rect><path d="M237,337.8H43.91a5.71,5.71,0,0,1-5.7-5.71V60.66A5.71,5.71,0,0,1,43.91,55H237a5.71,5.71,0,0,1,5.71,5.71V332.09A5.71,5.71,0,0,1,237,337.8ZM43.91,55.2a5.46,5.46,0,0,0-5.45,5.46V332.09a5.46,5.46,0,0,0,5.45,5.46H237a5.47,5.47,0,0,0,5.46-5.46V60.66A5.47,5.47,0,0,0,237,55.2Z" style="fill: rgb(235, 235, 235); transform-origin: 140.46px 196.4px;" id="el3ar2wtv4zt1" class="animable"></path><path d="M453.31,337.8H260.21a5.72,5.72,0,0,1-5.71-5.71V60.66A5.72,5.72,0,0,1,260.21,55h193.1A5.71,5.71,0,0,1,459,60.66V332.09A5.71,5.71,0,0,1,453.31,337.8ZM260.21,55.2a5.47,5.47,0,0,0-5.46,5.46V332.09a5.47,5.47,0,0,0,5.46,5.46h193.1a5.47,5.47,0,0,0,5.46-5.46V60.66a5.47,5.47,0,0,0-5.46-5.46Z" style="fill: rgb(235, 235, 235); transform-origin: 356.75px 196.4px;" id="el9cpa5hxexju" class="animable"></path><g id="el1i3y61vp5d9"><circle cx="186.72" cy="96.56" r="23.55" style="fill: rgb(224, 224, 224); transform-origin: 186.72px 96.56px; transform: rotate(-9.22deg);" class="animable"></circle></g><g id="elu1kaoblsyy"><circle cx="186.72" cy="96.56" r="20.03" style="fill: rgb(240, 240, 240); transform-origin: 186.72px 96.56px; transform: rotate(-9.22deg);" class="animable"></circle></g><polyline points="185.77 110.3 185.77 96.3 176.49 101.55" style="fill: rgb(240, 240, 240); transform-origin: 181.13px 103.3px;" id="elafmp6pir31" class="animable"></polyline><path d="M185.77,111.3a1,1,0,0,1-1-1V98l-7.78,4.4a1,1,0,1,1-1-1.74l9.28-5.25a1,1,0,0,1,1,0,1,1,0,0,1,.5.86v14A1,1,0,0,1,185.77,111.3Z" style="fill: rgb(224, 224, 224); transform-origin: 181.129px 103.288px;" id="elbery066s33r" class="animable"></path><g id="elbv9n7md264"><rect x="333.95" y="153.18" width="99.62" height="110.17" style="fill: rgb(224, 224, 224); transform-origin: 383.76px 208.265px; transform: rotate(180deg);" class="animable"></rect></g><g id="elgeoe3ki1udi"><rect x="330.77" y="153.18" width="103.32" height="110.17" style="fill: rgb(240, 240, 240); transform-origin: 382.43px 208.265px; transform: rotate(180deg);" class="animable"></rect></g><g id="elslz34l0ncuf"><rect x="335.14" y="156.7" width="94.74" height="101.6" style="fill: rgb(255, 255, 255); transform-origin: 382.51px 207.5px; transform: rotate(180deg);" class="animable"></rect></g><g id="elthdc4dnxetj"><rect x="335.14" y="156.7" width="2.74" height="101.6" style="fill: rgb(224, 224, 224); transform-origin: 336.51px 207.5px; transform: rotate(180deg);" class="animable"></rect></g><g id="el479awk176lk"><rect x="382.49" y="184.86" width="2.74" height="92.54" style="fill: rgb(224, 224, 224); transform-origin: 383.86px 231.13px; transform: rotate(-90deg);" class="animable"></rect></g><g id="ele1my8pl7kwc"><rect x="335.14" y="225.16" width="96.21" height="4.6" style="fill: rgb(240, 240, 240); transform-origin: 383.245px 227.46px; transform: rotate(180deg);" class="animable"></rect></g><rect x="64.62" y="373.44" width="21.6" height="8.54" style="fill: rgb(245, 245, 245); transform-origin: 75.42px 377.71px;" id="ely73q8z6qu1" class="animable"></rect><rect x="52.88" y="373.44" width="9.85" height="8.54" style="fill: rgb(245, 245, 245); transform-origin: 57.805px 377.71px;" id="el3m2imu3emny" class="animable"></rect><rect x="88.11" y="373.44" width="21.6" height="8.54" style="fill: rgb(245, 245, 245); transform-origin: 98.91px 377.71px;" id="ellqxq4mqx98d" class="animable"></rect><rect x="111.59" y="373.44" width="21.6" height="8.54" style="fill: rgb(245, 245, 245); transform-origin: 122.39px 377.71px;" id="ell6jugjxkec" class="animable"></rect><rect x="135.08" y="373.44" width="21.6" height="8.54" style="fill: rgb(245, 245, 245); transform-origin: 145.88px 377.71px;" id="eluo6e6au7uf" class="animable"></rect><rect x="252.51" y="373.44" width="21.6" height="8.54" style="fill: rgb(245, 245, 245); transform-origin: 263.31px 377.71px;" id="el7j9k42ft3m" class="animable"></rect><rect x="276" y="373.44" width="21.6" height="8.54" style="fill: rgb(245, 245, 245); transform-origin: 286.8px 377.71px;" id="elscbw44bjku" class="animable"></rect><rect x="299.49" y="373.44" width="21.6" height="8.54" style="fill: rgb(245, 245, 245); transform-origin: 310.29px 377.71px;" id="el26i3jfuby91" class="animable"></rect><rect x="393.43" y="373.44" width="21.6" height="8.54" style="fill: rgb(245, 245, 245); transform-origin: 404.23px 377.71px;" id="ele19lhpnkld9" class="animable"></rect><rect x="416.92" y="373.44" width="9.85" height="8.54" style="fill: rgb(245, 245, 245); transform-origin: 421.845px 377.71px;" id="elrxeccpcdcn" class="animable"></rect><rect x="52.88" y="362.74" width="21.6" height="8.54" style="fill: rgb(245, 245, 245); transform-origin: 63.68px 367.01px;" id="el6b402yo3ldd" class="animable"></rect><rect x="76.36" y="362.74" width="21.6" height="8.54" style="fill: rgb(245, 245, 245); transform-origin: 87.16px 367.01px;" id="el2tbjauwzfs3" class="animable"></rect><rect x="99.85" y="362.74" width="21.6" height="8.54" style="fill: rgb(245, 245, 245); transform-origin: 110.65px 367.01px;" id="eln7zkb6mp70q" class="animable"></rect><rect x="123.34" y="362.74" width="21.6" height="8.54" style="fill: rgb(245, 245, 245); transform-origin: 134.14px 367.01px;" id="elp9p4qeo5ph" class="animable"></rect><rect x="240.77" y="362.74" width="21.6" height="8.54" style="fill: rgb(245, 245, 245); transform-origin: 251.57px 367.01px;" id="elrtezri6uvr" class="animable"></rect><rect x="264.26" y="362.74" width="21.6" height="8.54" style="fill: rgb(245, 245, 245); transform-origin: 275.06px 367.01px;" id="el5jow5otbij5" class="animable"></rect><rect x="287.74" y="362.74" width="21.6" height="8.54" style="fill: rgb(245, 245, 245); transform-origin: 298.54px 367.01px;" id="elu9w3rn9dct" class="animable"></rect><rect x="311.23" y="362.74" width="21.6" height="8.54" style="fill: rgb(245, 245, 245); transform-origin: 322.03px 367.01px;" id="el830dc2h19gb" class="animable"></rect><rect x="381.69" y="362.74" width="21.6" height="8.54" style="fill: rgb(245, 245, 245); transform-origin: 392.49px 367.01px;" id="eli4u75qw4hpt" class="animable"></rect><rect x="405.17" y="362.74" width="21.6" height="8.54" style="fill: rgb(245, 245, 245); transform-origin: 415.97px 367.01px;" id="eltx9kjzvmyy" class="animable"></rect><rect x="64.62" y="352.04" width="21.6" height="8.54" style="fill: rgb(245, 245, 245); transform-origin: 75.42px 356.31px;" id="elg0giuth20t8" class="animable"></rect><rect x="52.88" y="352.04" width="9.85" height="8.54" style="fill: rgb(245, 245, 245); transform-origin: 57.805px 356.31px;" id="elzu2y0r2s16q" class="animable"></rect><rect x="88.11" y="352.04" width="21.6" height="8.54" style="fill: rgb(245, 245, 245); transform-origin: 98.91px 356.31px;" id="el7xo140njg" class="animable"></rect><rect x="252.51" y="352.04" width="21.6" height="8.54" style="fill: rgb(245, 245, 245); transform-origin: 263.31px 356.31px;" id="el11cbc2pg6fva" class="animable"></rect><rect x="276" y="352.04" width="21.6" height="8.54" style="fill: rgb(245, 245, 245); transform-origin: 286.8px 356.31px;" id="elnxqgjemnd2" class="animable"></rect><rect x="299.49" y="352.04" width="21.6" height="8.54" style="fill: rgb(245, 245, 245); transform-origin: 310.29px 356.31px;" id="elw7rhprwotj" class="animable"></rect><rect x="322.97" y="352.04" width="21.6" height="8.54" style="fill: rgb(245, 245, 245); transform-origin: 333.77px 356.31px;" id="elnppd2capvdr" class="animable"></rect><rect x="393.43" y="352.04" width="21.6" height="8.54" style="fill: rgb(245, 245, 245); transform-origin: 404.23px 356.31px;" id="elflb2b16t14j" class="animable"></rect><rect x="416.92" y="352.04" width="9.85" height="8.54" style="fill: rgb(245, 245, 245); transform-origin: 421.845px 356.31px;" id="els0w5xg1cgi" class="animable"></rect><rect x="52.88" y="341.34" width="21.6" height="8.54" style="fill: rgb(245, 245, 245); transform-origin: 63.68px 345.61px;" id="ele9vsptkon49" class="animable"></rect><rect x="76.36" y="341.34" width="21.6" height="8.54" style="fill: rgb(245, 245, 245); transform-origin: 87.16px 345.61px;" id="el186zbz5q4ul" class="animable"></rect><rect x="264.26" y="341.34" width="21.6" height="8.54" style="fill: rgb(245, 245, 245); transform-origin: 275.06px 345.61px;" id="eluc3jwazo6wc" class="animable"></rect><rect x="381.69" y="341.34" width="21.6" height="8.54" style="fill: rgb(245, 245, 245); transform-origin: 392.49px 345.61px;" id="elti74uugo4gd" class="animable"></rect><rect x="405.17" y="341.34" width="21.6" height="8.54" style="fill: rgb(245, 245, 245); transform-origin: 415.97px 345.61px;" id="elda1fmslfkqp" class="animable"></rect><rect x="52.88" y="330.64" width="9.85" height="8.54" style="fill: rgb(245, 245, 245); transform-origin: 57.805px 334.91px;" id="ellm1ows5oltk" class="animable"></rect><rect x="416.92" y="330.64" width="9.85" height="8.54" style="fill: rgb(245, 245, 245); transform-origin: 421.845px 334.91px;" id="elh6p94dzcyxe" class="animable"></rect><rect x="170.31" y="319.94" width="21.6" height="8.54" style="fill: rgb(245, 245, 245); transform-origin: 181.11px 324.21px;" id="elnodr7knpyx" class="animable"></rect><rect x="193.8" y="319.94" width="21.6" height="8.54" style="fill: rgb(245, 245, 245); transform-origin: 204.6px 324.21px;" id="el5lgf2dhc5ef" class="animable"></rect><rect x="52.88" y="309.24" width="9.85" height="8.54" style="fill: rgb(245, 245, 245); transform-origin: 57.805px 313.51px;" id="elww1pu3qc97e" class="animable"></rect><rect x="158.57" y="309.24" width="21.6" height="8.54" style="fill: rgb(245, 245, 245); transform-origin: 169.37px 313.51px;" id="elouh56hgf068" class="animable"></rect><rect x="182.05" y="309.24" width="21.6" height="8.54" style="fill: rgb(245, 245, 245); transform-origin: 192.85px 313.51px;" id="elmydsxz64f8f" class="animable"></rect><rect x="322.97" y="309.24" width="21.6" height="8.54" style="fill: rgb(245, 245, 245); transform-origin: 333.77px 313.51px;" id="el89wu3k49ekq" class="animable"></rect><rect x="346.46" y="309.24" width="21.6" height="8.54" style="fill: rgb(245, 245, 245); transform-origin: 357.26px 313.51px;" id="el8jmel7tycc8" class="animable"></rect><rect x="52.88" y="298.54" width="21.6" height="8.54" style="fill: rgb(245, 245, 245); transform-origin: 63.68px 302.81px;" id="el0vu5qkzd8z8l" class="animable"></rect><rect x="146.82" y="298.54" width="21.6" height="8.54" style="fill: rgb(245, 245, 245); transform-origin: 157.62px 302.81px;" id="elgffxzn5y2os" class="animable"></rect><rect x="170.31" y="298.54" width="21.6" height="8.54" style="fill: rgb(245, 245, 245); transform-origin: 181.11px 302.81px;" id="el96s45hj6jol" class="animable"></rect><rect x="334.72" y="298.54" width="21.6" height="8.54" style="fill: rgb(245, 245, 245); transform-origin: 345.52px 302.81px;" id="ellxamgyv35pb" class="animable"></rect><rect x="358.2" y="298.54" width="21.6" height="8.54" style="fill: rgb(245, 245, 245); transform-origin: 369px 302.81px;" id="el6xb6t41nxs7" class="animable"></rect><rect x="381.69" y="298.54" width="21.6" height="8.54" style="fill: rgb(245, 245, 245); transform-origin: 392.49px 302.81px;" id="elcf3hx9mlclj" class="animable"></rect><rect x="405.17" y="298.54" width="21.6" height="8.54" style="fill: rgb(245, 245, 245); transform-origin: 415.97px 302.81px;" id="elocleanwek3b" class="animable"></rect><rect x="52.88" y="287.84" width="9.85" height="8.54" style="fill: rgb(245, 245, 245); transform-origin: 57.805px 292.11px;" id="el79tbnnipfit" class="animable"></rect><rect x="158.57" y="287.84" width="21.6" height="8.54" style="fill: rgb(245, 245, 245); transform-origin: 169.37px 292.11px;" id="elnch6e60j40b" class="animable"></rect><rect x="182.05" y="287.84" width="21.6" height="8.54" style="fill: rgb(245, 245, 245); transform-origin: 192.85px 292.11px;" id="el2fxb85xevzx" class="animable"></rect><rect x="346.46" y="287.84" width="21.6" height="8.54" style="fill: rgb(245, 245, 245); transform-origin: 357.26px 292.11px;" id="elbztxlho77s" class="animable"></rect><rect x="229.03" y="266.44" width="21.6" height="8.54" style="fill: rgb(245, 245, 245); transform-origin: 239.83px 270.71px;" id="eldqszp7rhlzt" class="animable"></rect><rect x="146.82" y="255.74" width="21.6" height="8.54" style="fill: rgb(245, 245, 245); transform-origin: 157.62px 260.01px;" id="elq86xgpo1qr" class="animable"></rect><rect x="264.26" y="255.74" width="21.6" height="8.54" style="fill: rgb(245, 245, 245); transform-origin: 275.06px 260.01px;" id="el4qbmrffxvgi" class="animable"></rect><rect x="110.27" y="229.89" width="21.6" height="8.54" style="fill: rgb(245, 245, 245); transform-origin: 121.07px 234.16px;" id="eloga1yzr9ji" class="animable"></rect><rect x="133.76" y="229.89" width="21.6" height="8.54" style="fill: rgb(245, 245, 245); transform-origin: 144.56px 234.16px;" id="elemx7e8wsd6s" class="animable"></rect><rect x="52.88" y="219.19" width="9.85" height="8.54" style="fill: rgb(245, 245, 245); transform-origin: 57.805px 223.46px;" id="eltb0pywlraip" class="animable"></rect><rect x="98.53" y="219.19" width="21.6" height="8.54" style="fill: rgb(245, 245, 245); transform-origin: 109.33px 223.46px;" id="elgt1ps01j33" class="animable"></rect><rect x="122.02" y="219.19" width="21.6" height="8.54" style="fill: rgb(245, 245, 245); transform-origin: 132.82px 223.46px;" id="elmj7lz60w04r" class="animable"></rect><rect x="52.88" y="208.49" width="21.6" height="8.54" style="fill: rgb(245, 245, 245); transform-origin: 63.68px 212.76px;" id="el6uc3nnl6mt9" class="animable"></rect><rect x="86.79" y="208.49" width="21.6" height="8.54" style="fill: rgb(245, 245, 245); transform-origin: 97.59px 212.76px;" id="elhg2o23w2ms" class="animable"></rect><rect x="180.31" y="208.49" width="21.6" height="8.54" style="fill: rgb(245, 245, 245); transform-origin: 191.11px 212.76px;" id="el65760hgxhdy" class="animable"></rect><rect x="52.88" y="197.79" width="9.85" height="8.54" style="fill: rgb(245, 245, 245); transform-origin: 57.805px 202.06px;" id="elv1zmpfdnn88" class="animable"></rect><rect x="168.57" y="197.79" width="21.6" height="8.54" style="fill: rgb(245, 245, 245); transform-origin: 179.37px 202.06px;" id="elnrw15h8oaqi" class="animable"></rect><rect x="192.06" y="197.79" width="21.6" height="8.54" style="fill: rgb(245, 245, 245); transform-origin: 202.86px 202.06px;" id="elyt4un77vxcg" class="animable"></rect><rect x="229.03" y="176.38" width="21.6" height="8.54" style="fill: rgb(245, 245, 245); transform-origin: 239.83px 180.65px;" id="el3cafos812pe" class="animable"></rect><rect x="146.82" y="165.68" width="21.6" height="8.54" style="fill: rgb(245, 245, 245); transform-origin: 157.62px 169.95px;" id="el9r8m144r0mq" class="animable"></rect><rect x="264.26" y="165.68" width="21.6" height="8.54" style="fill: rgb(245, 245, 245); transform-origin: 275.06px 169.95px;" id="elcl7e6po97j" class="animable"></rect><rect x="52.88" y="123.29" width="9.85" height="8.54" style="fill: rgb(245, 245, 245); transform-origin: 57.805px 127.56px;" id="el7njqt62ugso" class="animable"></rect><rect x="64.62" y="101.89" width="21.6" height="8.54" style="fill: rgb(245, 245, 245); transform-origin: 75.42px 106.16px;" id="el38a8gxzb09o" class="animable"></rect><rect x="52.88" y="101.89" width="9.85" height="8.54" style="fill: rgb(245, 245, 245); transform-origin: 57.805px 106.16px;" id="elyfr1jmz5e8k" class="animable"></rect><rect x="52.88" y="91.19" width="21.6" height="8.54" style="fill: rgb(245, 245, 245); transform-origin: 63.68px 95.46px;" id="elusqlpwxsbw9" class="animable"></rect><rect x="76.36" y="91.19" width="21.6" height="8.54" style="fill: rgb(245, 245, 245); transform-origin: 87.16px 95.46px;" id="elpvskcilmpf" class="animable"></rect><rect x="52.88" y="80.49" width="9.85" height="8.54" style="fill: rgb(245, 245, 245); transform-origin: 57.805px 84.76px;" id="el9nqy57x6r7" class="animable"></rect><rect x="393.43" y="101.89" width="21.6" height="8.54" style="fill: rgb(245, 245, 245); transform-origin: 404.23px 106.16px;" id="elvao8x0zxedt" class="animable"></rect><rect x="416.92" y="101.89" width="9.85" height="8.54" style="fill: rgb(245, 245, 245); transform-origin: 421.845px 106.16px;" id="elvwcp9vmrat" class="animable"></rect><rect x="405.17" y="91.19" width="21.6" height="8.54" style="fill: rgb(245, 245, 245); transform-origin: 415.97px 95.46px;" id="elq6er1vmvcvb" class="animable"></rect><rect x="322.97" y="99.11" width="21.6" height="8.54" style="fill: rgb(245, 245, 245); transform-origin: 333.77px 103.38px;" id="el2jc5khwykn3" class="animable"></rect><rect x="346.46" y="99.11" width="21.6" height="8.54" style="fill: rgb(245, 245, 245); transform-origin: 357.26px 103.38px;" id="elb6zw94c4kct" class="animable"></rect><rect x="334.72" y="88.41" width="21.6" height="8.54" style="fill: rgb(245, 245, 245); transform-origin: 345.52px 92.68px;" id="elgpakrfnem1f" class="animable"></rect><rect x="229.03" y="116.35" width="21.6" height="8.54" style="fill: rgb(245, 245, 245); transform-origin: 239.83px 120.62px;" id="elixuxn5d7yyi" class="animable"></rect><rect x="264.26" y="105.65" width="21.6" height="8.54" style="fill: rgb(245, 245, 245); transform-origin: 275.06px 109.92px;" id="elrcf773achab" class="animable"></rect></g><g id="freepik--Shadow--inject-116" class="animable" style="transform-origin: 250px 416.24px;"><ellipse id="freepik--path--inject-116" cx="250" cy="416.24" rx="193.89" ry="11.32" style="fill: rgb(245, 245, 245); transform-origin: 250px 416.24px;" class="animable"></ellipse></g><g id="freepik--Blackboard--inject-116" class="animable" style="transform-origin: 187.935px 229.878px;"><g id="elx9ykmh09zeg"><rect x="103.87" y="111.51" width="168.13" height="230.9" style="fill: rgb(64, 123, 255); transform-origin: 187.935px 226.96px; transform: rotate(90deg);" class="animable"></rect></g><g id="elbu9kkwwy7pc"><rect x="103.87" y="111.51" width="168.13" height="230.9" style="fill: rgb(255, 255, 255); opacity: 0.5; transform-origin: 187.935px 226.96px; transform: rotate(90deg);" class="animable"></rect></g><rect x="78.49" y="148.89" width="218.9" height="156.13" style="fill: rgb(38, 50, 56); transform-origin: 187.94px 226.955px;" id="elzeogacj1h7" class="animable"></rect><rect x="87.62" y="301.33" width="33.76" height="8.44" style="fill: rgb(64, 123, 255); transform-origin: 104.5px 305.55px;" id="el7dqir89mu6" class="animable"></rect><rect x="69.26" y="310.07" width="237.36" height="6.79" style="fill: rgb(64, 123, 255); transform-origin: 187.94px 313.465px;" id="el5j6sqpky3cb" class="animable"></rect><g id="elhb4txmy67l5"><rect x="69.26" y="310.07" width="237.36" height="6.79" style="fill: rgb(255, 255, 255); opacity: 0.6; transform-origin: 187.94px 313.465px;" class="animable"></rect></g><rect x="65.39" y="308.02" width="245.09" height="4.09" style="fill: rgb(64, 123, 255); transform-origin: 187.935px 310.065px;" id="elo7ttrimnqv" class="animable"></rect><g id="elrce2q8ouqd8"><rect x="65.39" y="308.02" width="245.09" height="4.09" style="fill: rgb(255, 255, 255); opacity: 0.7; transform-origin: 187.935px 310.065px;" class="animable"></rect></g><g id="ela3bv4dk3l0e"><g style="opacity: 0.6; transform-origin: 180.716px 228.871px;" class="animable"><path d="M109.15,169.31l-.62.92a1.19,1.19,0,0,0-.86-.31,1.51,1.51,0,0,0-1.45,1.18l-.25.72h2l-.31,1H105.7l-2,6a2.63,2.63,0,0,1-2.62,2.07,2.16,2.16,0,0,1-1.44-.46l.59-.88a1.24,1.24,0,0,0,.88.31,1.5,1.5,0,0,0,1.41-1.18l1.92-5.88h-1.14l.31-1h1.15l.25-.76a2.78,2.78,0,0,1,2.74-2.17A2,2,0,0,1,109.15,169.31Z" style="fill: rgb(255, 255, 255); transform-origin: 104.395px 174.879px;" id="elnfqtcpu14rp" class="animable"></path><path d="M108.6,177.37a13.64,13.64,0,0,1,2.85-8.4h1.24a14.17,14.17,0,0,0-2.93,8.47,10.92,10.92,0,0,0,.55,3.39h-1.12A10.34,10.34,0,0,1,108.6,177.37Z" style="fill: rgb(255, 255, 255); transform-origin: 110.645px 174.9px;" id="eldoo8gd568w9" class="animable"></path><path d="M114.18,176.23a1.53,1.53,0,0,0,0,.36c0,.52.28.83.89.83a1.69,1.69,0,0,0,1-.31l.25.92a2.68,2.68,0,0,1-1.56.42,1.62,1.62,0,0,1-1.77-1.69,2.23,2.23,0,0,1,0-.5l.72-3.6h-1.14l.19-1h1.16l.29-1.47h1.21l-.29,1.47H117l-.2,1H114.9Z" style="fill: rgb(255, 255, 255); transform-origin: 114.785px 174.324px;" id="elfa5x4htcvka" class="animable"></path><path d="M119.82,172.36a11.21,11.21,0,0,0-.54-3.39h1.11a10.09,10.09,0,0,1,.6,3.46,13.64,13.64,0,0,1-2.85,8.4h-1.25A14.11,14.11,0,0,0,119.82,172.36Z" style="fill: rgb(255, 255, 255); transform-origin: 118.94px 174.9px;" id="elm2fxz12jpk" class="animable"></path><path d="M125.69,174.94h5.67l-.2,1h-5.67Zm.6-3H132l-.2,1h-5.67Z" style="fill: rgb(255, 255, 255); transform-origin: 128.745px 173.94px;" id="elefepr33518" class="animable"></path><path d="M146.46,164.18l-1.87,9.41h-1.17l.17-.83a3.37,3.37,0,0,1-2.38.9,2.77,2.77,0,0,1-3-2.9,3.76,3.76,0,0,1,3.8-4,2.56,2.56,0,0,1,2.44,1.22l.76-3.84Zm-2.35,5.58a1.78,1.78,0,0,0-2-1.89,2.64,2.64,0,0,0-2.62,2.84,1.78,1.78,0,0,0,2,1.89A2.65,2.65,0,0,0,144.11,169.76Z" style="fill: rgb(255, 255, 255); transform-origin: 142.331px 168.905px;" id="el3oucr7lqss8" class="animable"></path><path d="M149.89,165.81l-.62,3.1h4.46l-.21,1.09h-4.47l-.71,3.59h-1.26l1.77-8.88h6.26l-.21,1.1Z" style="fill: rgb(255, 255, 255); transform-origin: 151.095px 169.15px;" id="elcyg0uaitw69" class="animable"></path><path d="M158.87,172.58a13.66,13.66,0,0,1,2.85-8.4H163a14.13,14.13,0,0,0-2.93,8.47,11,11,0,0,0,.54,3.4h-1.11A10.19,10.19,0,0,1,158.87,172.58Z" style="fill: rgb(255, 255, 255); transform-origin: 160.935px 170.115px;" id="eldg3g1b4pj5q" class="animable"></path><path d="M164.45,171.44a2.33,2.33,0,0,0,0,.36c0,.52.28.83.89.83a1.66,1.66,0,0,0,1-.31l.26.92a2.72,2.72,0,0,1-1.56.42,1.62,1.62,0,0,1-1.78-1.68,3.14,3.14,0,0,1,0-.51l.73-3.6h-1.15l.2-1h1.15l.29-1.48h1.22l-.29,1.48h1.92l-.2,1h-1.93Z" style="fill: rgb(255, 255, 255); transform-origin: 165.085px 169.529px;" id="elr0qwn8c943" class="animable"></path><path d="M170.09,167.58a10.92,10.92,0,0,0-.54-3.4h1.12a10.34,10.34,0,0,1,.59,3.46,13.69,13.69,0,0,1-2.85,8.41h-1.24A14.21,14.21,0,0,0,170.09,167.58Z" style="fill: rgb(255, 255, 255); transform-origin: 169.215px 170.115px;" id="ele3qck9mql76" class="animable"></path><path d="M135,178.11h6.34l-.15.79h-6.34Z" style="fill: rgb(255, 255, 255); transform-origin: 138.095px 178.505px;" id="elg2v4ws5ykfb" class="animable"></path><path d="M141.38,178.11h6.34l-.15.79h-6.34Z" style="fill: rgb(255, 255, 255); transform-origin: 144.475px 178.505px;" id="el396cvq74z4s" class="animable"></path><path d="M147.72,178.11h6.34l-.15.79h-6.34Z" style="fill: rgb(255, 255, 255); transform-origin: 150.815px 178.505px;" id="elvz7bunuhmda" class="animable"></path><path d="M154.06,178.11h6.34l-.15.79h-6.34Z" style="fill: rgb(255, 255, 255); transform-origin: 157.155px 178.505px;" id="el8bhdq31hyl" class="animable"></path><path d="M160.41,178.11h6.34l-.16.79h-6.34Z" style="fill: rgb(255, 255, 255); transform-origin: 163.5px 178.505px;" id="elx58df7n673" class="animable"></path><path d="M166.75,178.11h6.34l-.16.79h-6.34Z" style="fill: rgb(255, 255, 255); transform-origin: 169.84px 178.505px;" id="elp5xrpn2usu" class="animable"></path><path d="M178.05,174.67h5.67l-.21,1h-5.67Zm.59-3h5.67l-.2,1h-5.67Z" style="fill: rgb(255, 255, 255); transform-origin: 181.075px 173.67px;" id="elcvrfhv56xmd" class="animable"></path><path d="M187.29,178.11h6.34l-.15.79h-6.34Z" style="fill: rgb(255, 255, 255); transform-origin: 190.385px 178.505px;" id="elm9at6cope8o" class="animable"></path><path d="M197.05,178.11h6.34l-.16.79h-6.34Z" style="fill: rgb(255, 255, 255); transform-origin: 200.14px 178.505px;" id="el349e9dw74zi" class="animable"></path><path d="M203.39,178.11h6.34l-.15.79h-6.34Z" style="fill: rgb(255, 255, 255); transform-origin: 206.485px 178.505px;" id="elnbzd27rujgb" class="animable"></path><path d="M209.73,178.11h6.34l-.15.79h-6.34Z" style="fill: rgb(255, 255, 255); transform-origin: 212.825px 178.505px;" id="el0x80wka50e" class="animable"></path><path d="M216.07,178.11h6.34l-.15.79h-6.34Z" style="fill: rgb(255, 255, 255); transform-origin: 219.165px 178.505px;" id="el5xf1nzm5rrr" class="animable"></path><path d="M222.41,178.11h6.34l-.15.79h-6.34Z" style="fill: rgb(255, 255, 255); transform-origin: 225.505px 178.505px;" id="el3vjv8a4cupi" class="animable"></path><path d="M228.76,178.11h6.34l-.16.79H228.6Z" style="fill: rgb(255, 255, 255); transform-origin: 231.85px 178.505px;" id="el9mr3r0q8u5h" class="animable"></path><path d="M239.26,177.38a.89.89,0,0,1,.9-.93.79.79,0,0,1,.8.82.89.89,0,0,1-.89.92A.8.8,0,0,1,239.26,177.38Z" style="fill: rgb(255, 255, 255); transform-origin: 240.11px 177.32px;" id="el3e4drjg80ug" class="animable"></path><path d="M155.34,181.34l-1.88,9.41h-1.17l.17-.83a3.36,3.36,0,0,1-2.37.9,2.77,2.77,0,0,1-3-2.9,3.76,3.76,0,0,1,3.8-4,2.56,2.56,0,0,1,2.44,1.22l.76-3.84ZM153,186.92a1.78,1.78,0,0,0-2-1.89,2.64,2.64,0,0,0-2.62,2.84,1.78,1.78,0,0,0,2,1.89A2.65,2.65,0,0,0,153,186.92Z" style="fill: rgb(255, 255, 255); transform-origin: 151.211px 186.065px;" id="elhkbe3lzmpmw" class="animable"></path><path d="M157.75,188.6a1.53,1.53,0,0,0,0,.36c0,.52.28.83.89.83a1.69,1.69,0,0,0,1-.31l.25.92a2.68,2.68,0,0,1-1.56.42,1.62,1.62,0,0,1-1.77-1.69,2.29,2.29,0,0,1,.05-.5l.72-3.6h-1.14l.19-1h1.15l.3-1.47H159l-.29,1.47h1.93l-.2,1h-1.93Z" style="fill: rgb(255, 255, 255); transform-origin: 158.415px 186.694px;" id="elscfs50fx02l" class="animable"></path><path d="M206.49,164.18l-1.87,9.41h-1.17l.17-.83a3.36,3.36,0,0,1-2.37.9,2.77,2.77,0,0,1-3-2.9,3.76,3.76,0,0,1,3.8-4,2.56,2.56,0,0,1,2.44,1.22l.76-3.84Zm-2.35,5.58a1.78,1.78,0,0,0-2-1.89,2.64,2.64,0,0,0-2.62,2.84,1.78,1.78,0,0,0,2,1.89A2.65,2.65,0,0,0,204.14,169.76Z" style="fill: rgb(255, 255, 255); transform-origin: 202.366px 168.905px;" id="el2gbqfpykaf9" class="animable"></path><path d="M212.8,170.69l1.62,2.9h-1.34l-1.55-2.72h-2.61l-.53,2.72H207.1l1.78-8.88h3.31c2.08,0,3.27.95,3.27,2.6A3.29,3.29,0,0,1,212.8,170.69Zm1.39-3.27c0-1.06-.76-1.61-2.11-1.61h-2.15l-.8,4h2.2C213.14,169.79,214.19,169,214.19,167.42Z" style="fill: rgb(255, 255, 255); transform-origin: 211.282px 169.15px;" id="elt2fv123yezc" class="animable"></path><path d="M220.07,172.58a13.66,13.66,0,0,1,2.85-8.4h1.24a14.19,14.19,0,0,0-2.93,8.47,11,11,0,0,0,.55,3.4h-1.12A10.45,10.45,0,0,1,220.07,172.58Z" style="fill: rgb(255, 255, 255); transform-origin: 222.115px 170.115px;" id="elo5aeyes0tc" class="animable"></path><path d="M225.65,171.44a1.53,1.53,0,0,0,0,.36c0,.52.28.83.89.83a1.69,1.69,0,0,0,1-.31l.25.92a2.68,2.68,0,0,1-1.56.42,1.62,1.62,0,0,1-1.77-1.68,2.32,2.32,0,0,1,.05-.51l.72-3.6H224l.19-1h1.16l.29-1.48h1.21l-.29,1.48h1.93l-.2,1h-1.93Z" style="fill: rgb(255, 255, 255); transform-origin: 226.245px 169.529px;" id="eliweoqz4fni" class="animable"></path><path d="M231.29,167.58a11.22,11.22,0,0,0-.54-3.4h1.11a10.09,10.09,0,0,1,.6,3.46,13.69,13.69,0,0,1-2.85,8.41h-1.25A14.15,14.15,0,0,0,231.29,167.58Z" style="fill: rgb(255, 255, 255); transform-origin: 230.41px 170.115px;" id="el058gvy9njlgs" class="animable"></path><path d="M216.75,180.81l-1.87,9.41h-1.17l.17-.83a3.37,3.37,0,0,1-2.38.9,2.77,2.77,0,0,1-3-2.9,3.76,3.76,0,0,1,3.8-4,2.57,2.57,0,0,1,2.44,1.22l.76-3.84Zm-2.35,5.58a1.78,1.78,0,0,0-2-1.89,2.64,2.64,0,0,0-2.62,2.84,1.78,1.78,0,0,0,2,1.89A2.65,2.65,0,0,0,214.4,186.39Z" style="fill: rgb(255, 255, 255); transform-origin: 212.621px 185.535px;" id="elcjeb6zpuq7r" class="animable"></path><path d="M219.16,188.08a2.16,2.16,0,0,0,0,.35.77.77,0,0,0,.88.84,1.73,1.73,0,0,0,1-.32l.25.93a2.79,2.79,0,0,1-1.56.41,1.62,1.62,0,0,1-1.77-1.68,2.37,2.37,0,0,1,0-.51l.72-3.6h-1.14l.19-1h1.15l.29-1.47h1.22l-.29,1.47H222l-.21,1h-1.92Z" style="fill: rgb(255, 255, 255); transform-origin: 219.77px 186.164px;" id="eldyqiwssem3p" class="animable"></path><path d="M126.61,204.87l-4.89,4.92h4l-.2,1h-5.63l.16-.79,4.9-4.93h-3.81l.2-1h5.43Z" style="fill: rgb(255, 255, 255); transform-origin: 123.33px 207.43px;" id="elusod5r6kq1r" class="animable"></path><path d="M127.66,209.79a13.64,13.64,0,0,1,2.86-8.41h1.24a14.13,14.13,0,0,0-2.93,8.47,11,11,0,0,0,.55,3.4h-1.12A10.13,10.13,0,0,1,127.66,209.79Z" style="fill: rgb(255, 255, 255); transform-origin: 129.71px 207.315px;" id="el6lvkmo8kkph" class="animable"></path><path d="M133.24,208.64a2.38,2.38,0,0,0,0,.36.77.77,0,0,0,.88.84,1.73,1.73,0,0,0,1-.32l.25.92a2.72,2.72,0,0,1-1.56.42,1.62,1.62,0,0,1-1.77-1.68,2.32,2.32,0,0,1,.05-.51l.72-3.6h-1.14l.19-1H133l.29-1.47h1.22l-.29,1.47h1.93l-.21,1H134Z" style="fill: rgb(255, 255, 255); transform-origin: 133.91px 206.734px;" id="elie5f6dkaioo" class="animable"></path><path d="M138.89,204.78a11,11,0,0,0-.55-3.4h1.12a10.34,10.34,0,0,1,.59,3.46,13.69,13.69,0,0,1-2.85,8.41H136A14.15,14.15,0,0,0,138.89,204.78Z" style="fill: rgb(255, 255, 255); transform-origin: 138.025px 207.315px;" id="ele7ymi826epa" class="animable"></path><path d="M149.1,210.79h-9.31l5.79-8.88h1.26Zm-7.24-1.11h5.72l-1.58-6.5Z" style="fill: rgb(255, 255, 255); transform-origin: 144.445px 206.35px;" id="elo5pa4lu51a8" class="animable"></path><path d="M152,208.64a1.59,1.59,0,0,0,0,.36.77.77,0,0,0,.89.84,1.7,1.7,0,0,0,1-.32l.26.92a2.72,2.72,0,0,1-1.56.42,1.62,1.62,0,0,1-1.78-1.68,2.32,2.32,0,0,1,.05-.51l.73-3.6h-1.15l.19-1h1.16l.29-1.47h1.22l-.29,1.47h1.92l-.2,1h-1.93Z" style="fill: rgb(255, 255, 255); transform-origin: 152.685px 206.734px;" id="ellpv95zpeup" class="animable"></path><path d="M159.23,207.35h5.67l-.2,1H159Zm.6-3h5.67l-.21,1h-5.66Z" style="fill: rgb(255, 255, 255); transform-origin: 162.25px 206.35px;" id="elyonf4df8ia" class="animable"></path><path d="M178.14,204.51c0,2.27-1.6,3.59-4.16,3.59h-2.37l-.53,2.69h-1.27l1.78-8.88h3.29C177,201.91,178.14,202.86,178.14,204.51Zm-1.27.11c0-1.06-.76-1.61-2.1-1.61h-2.13l-.8,4H174C175.82,207,176.87,206.18,176.87,204.62Z" style="fill: rgb(255, 255, 255); transform-origin: 173.975px 206.35px;" id="eld23zm0ydue" class="animable"></path><path d="M183.69,201.38l-.21,1h-.3a1,1,0,0,0-1.13.9l-.57,2.84c-.15.73-.38,1-.93,1.18a.73.73,0,0,1,.5.77,2.9,2.9,0,0,1,0,.38l-.53,2.67a1.56,1.56,0,0,0,0,.35.66.66,0,0,0,.75.72h.33l-.21,1h-.55a1.39,1.39,0,0,1-1.58-1.46,3.25,3.25,0,0,1,0-.51l.57-2.83a.75.75,0,0,0,0-.2c0-.3-.18-.43-.46-.43h-.44l.19-1h.44c.37,0,.6-.19.69-.64l.61-3a2,2,0,0,1,2.27-1.8Z" style="fill: rgb(255, 255, 255); transform-origin: 181.31px 207.252px;" id="elap9tqsqtbnf" class="animable"></path><path d="M185,208.64a1.59,1.59,0,0,0,0,.36.77.77,0,0,0,.89.84,1.7,1.7,0,0,0,1-.32l.26.92a2.72,2.72,0,0,1-1.56.42,1.62,1.62,0,0,1-1.78-1.68,2.32,2.32,0,0,1,.05-.51l.73-3.6h-1.15l.19-1h1.16l.29-1.47h1.22l-.29,1.47h1.92l-.2,1h-1.93Z" style="fill: rgb(255, 255, 255); transform-origin: 185.685px 206.734px;" id="eldgv1lk0jzpd" class="animable"></path><path d="M195.05,204.66l-4.87,1.74,4.2,1.75-.21,1L189,206.89l.21-1.09,6.12-2.24Z" style="fill: rgb(255, 255, 255); transform-origin: 192.165px 206.355px;" id="elvovb8bnzlkf" class="animable"></path><path d="M199.34,203h-3l.21-1.1h7.34l-.23,1.1h-3L199,210.79h-1.25Z" style="fill: rgb(255, 255, 255); transform-origin: 200.115px 206.345px;" id="el8vfxu8c2vng" class="animable"></path><path d="M209.88,204.66,205,206.4l4.19,1.75-.2,1-5.22-2.25.21-1.09,6.11-2.24Z" style="fill: rgb(255, 255, 255); transform-origin: 206.93px 206.36px;" id="elupsqs37dxpn" class="animable"></path><path d="M212.49,208.64a1.59,1.59,0,0,0,0,.36.77.77,0,0,0,.89.84,1.7,1.7,0,0,0,1-.32l.26.92a2.72,2.72,0,0,1-1.56.42,1.62,1.62,0,0,1-1.78-1.68,2.32,2.32,0,0,1,.05-.51l.72-3.6h-1.14l.19-1h1.16l.29-1.47h1.22l-.3,1.47h1.93l-.2,1h-1.93Z" style="fill: rgb(255, 255, 255); transform-origin: 213.175px 206.734px;" id="el85jlgcwh92i" class="animable"></path><path d="M222,206.86h-2.3l-.46,2.27h-1.06l.44-2.27h-2.3l.19-1h2.31l.45-2.28h1.07l-.45,2.28h2.3Z" style="fill: rgb(255, 255, 255); transform-origin: 219.255px 206.355px;" id="el474gwfvd0tx" class="animable"></path><path d="M231.11,210.79H221.8l5.79-8.88h1.26Zm-7.24-1.11h5.72l-1.58-6.5Z" style="fill: rgb(255, 255, 255); transform-origin: 226.455px 206.35px;" id="elwn1hy8udqjp" class="animable"></path><path d="M234.3,201.38h1.13l-2.37,11.87h-1.13Z" style="fill: rgb(255, 255, 255); transform-origin: 233.68px 207.315px;" id="elhsnhroj0hsf" class="animable"></path><path d="M239.53,203h-3l.21-1.1h7.35l-.23,1.1h-3l-1.56,7.78H238Z" style="fill: rgb(255, 255, 255); transform-origin: 240.31px 206.34px;" id="ela29fhpk3xnd" class="animable"></path><path d="M249.87,205.8l-.23,1.09-6.1,2.25.23-1.1,4.84-1.74-4.16-1.75.2-1Z" style="fill: rgb(255, 255, 255); transform-origin: 246.705px 206.345px;" id="elhet1h1gguz" class="animable"></path><path d="M252.68,208.64a2.47,2.47,0,0,0,0,.36.77.77,0,0,0,.89.84,1.73,1.73,0,0,0,1-.32l.25.92a2.72,2.72,0,0,1-1.56.42,1.62,1.62,0,0,1-1.78-1.68,3.14,3.14,0,0,1,.05-.51l.73-3.6h-1.14l.19-1h1.15l.29-1.47h1.22l-.29,1.47h1.92l-.2,1H253.4Z" style="fill: rgb(255, 255, 255); transform-origin: 253.36px 206.734px;" id="elud1rxbb03gm" class="animable"></path><path d="M259.48,206.81l-.19,1h-.44c-.37,0-.6.19-.69.63l-.61,3a2,2,0,0,1-2.27,1.8h-.56l.21-1h.3a1,1,0,0,0,1.13-.9l.57-2.84c.15-.74.38-1,.93-1.18a.74.74,0,0,1-.5-.77,2.73,2.73,0,0,1,0-.38l.53-2.68a1.48,1.48,0,0,0,0-.34.66.66,0,0,0-.75-.72h-.33l.21-1h.55a1.39,1.39,0,0,1,1.58,1.46,3,3,0,0,1-.05.5l-.58,2.83a1.68,1.68,0,0,0,0,.2.4.4,0,0,0,.46.44Z" style="fill: rgb(255, 255, 255); transform-origin: 257.1px 207.338px;" id="el14rbb16lvop" class="animable"></path><path d="M261.79,210a1.51,1.51,0,0,1-.29.81l-1.07,1.9h-.8l.87-1.9a.8.8,0,0,1-.41-.71.89.89,0,0,1,.9-.92A.78.78,0,0,1,261.79,210Z" style="fill: rgb(255, 255, 255); transform-origin: 260.711px 210.945px;" id="elmr6b3yx6729" class="animable"></path><path d="M122.09,240.31l1.63,2.89h-1.35l-1.54-2.71h-2.62l-.53,2.71H116.4l1.78-8.88h3.31c2.08,0,3.27,1,3.27,2.6A3.29,3.29,0,0,1,122.09,240.31Zm1.4-3.27c0-1.07-.76-1.61-2.12-1.61h-2.14l-.8,4h2.19C122.44,239.41,123.49,238.6,123.49,237Z" style="fill: rgb(255, 255, 255); transform-origin: 120.582px 238.76px;" id="elx0x7xna2bm" class="animable"></path><path d="M126,242.2a13.64,13.64,0,0,1,2.86-8.41h1.24a14.13,14.13,0,0,0-2.93,8.47,11.32,11.32,0,0,0,.54,3.4h-1.11A10.09,10.09,0,0,1,126,242.2Z" style="fill: rgb(255, 255, 255); transform-origin: 128.05px 239.725px;" id="elmm87d41vgnm" class="animable"></path><path d="M131.53,241.06a2.21,2.21,0,0,0,0,.35.77.77,0,0,0,.89.84,1.73,1.73,0,0,0,1-.32l.25.93a2.8,2.8,0,0,1-1.56.42,1.63,1.63,0,0,1-1.78-1.69,3.25,3.25,0,0,1,.05-.51l.73-3.6H129.9l.19-1h1.15l.29-1.47h1.22l-.29,1.47h1.93l-.21,1h-1.92Z" style="fill: rgb(255, 255, 255); transform-origin: 132.145px 239.149px;" id="elr0pexu3rmz" class="animable"></path><path d="M137.18,237.19a11,11,0,0,0-.55-3.4h1.12a10.34,10.34,0,0,1,.59,3.46,13.69,13.69,0,0,1-2.85,8.41h-1.24A14.19,14.19,0,0,0,137.18,237.19Z" style="fill: rgb(255, 255, 255); transform-origin: 136.295px 239.725px;" id="elotoj2yod7pb" class="animable"></path><path d="M143.05,239.76h5.67l-.21,1h-5.66Zm.6-3h5.66l-.2,1h-5.67Z" style="fill: rgb(255, 255, 255); transform-origin: 146.08px 238.76px;" id="el3zxvhjwtrzj" class="animable"></path><path d="M154.64,240.22v.08c0,1.23.69,1.91,2.13,1.91a3,3,0,0,0,2.08-.77l.52.87a4,4,0,0,1-2.7,1c-2,0-3.22-1.15-3.22-2.92a3.75,3.75,0,0,1,3.79-3.94,2.76,2.76,0,0,1,3,2.9,5.08,5.08,0,0,1-.09.9Zm.13-.89h4.33a1.7,1.7,0,0,0-1.91-1.9A2.41,2.41,0,0,0,154.77,239.33Z" style="fill: rgb(255, 255, 255); transform-origin: 156.845px 239.875px;" id="el9myfc59eza9" class="animable"></path><path d="M164.69,239.81l1.95,3.39h-1.3l-1.44-2.59-2.46,2.59H160l3.38-3.48-1.85-3.24h1.27l1.37,2.43,2.33-2.43h1.39Z" style="fill: rgb(255, 255, 255); transform-origin: 163.945px 239.84px;" id="elh47rd655raq" class="animable"></path><path d="M175.69,239.31a3.77,3.77,0,0,1-3.8,4,2.62,2.62,0,0,1-2.44-1.22l-.71,3.6h-1.21l1.82-9.18h1.17l-.17.84a3.35,3.35,0,0,1,2.38-.9A2.75,2.75,0,0,1,175.69,239.31Zm-1.23.06a1.77,1.77,0,0,0-2-1.89,2.64,2.64,0,0,0-2.62,2.84,1.78,1.78,0,0,0,2,1.89A2.64,2.64,0,0,0,174.46,239.37Z" style="fill: rgb(255, 255, 255); transform-origin: 171.614px 241.066px;" id="elfmye5gvmvhd" class="animable"></path><path d="M187.27,239.19h3.42l-.22,1.06h-3.4Z" style="fill: rgb(255, 255, 255); transform-origin: 188.88px 239.72px;" id="el48g61nhm3o" class="animable"></path><path d="M208.05,237.28l-4.9,4.92h4l-.2,1h-5.63l.16-.79,4.9-4.93h-3.81l.19-1h5.44Z" style="fill: rgb(255, 255, 255); transform-origin: 204.76px 239.84px;" id="elddqolzjyiz" class="animable"></path><path d="M209.1,242.2a13.64,13.64,0,0,1,2.86-8.41h1.24a14.13,14.13,0,0,0-2.93,8.47,11.32,11.32,0,0,0,.54,3.4H209.7A10.09,10.09,0,0,1,209.1,242.2Z" style="fill: rgb(255, 255, 255); transform-origin: 211.15px 239.725px;" id="eljc12rh1u69a" class="animable"></path><path d="M216.55,239.81l1.95,3.39h-1.29l-1.45-2.59-2.46,2.59h-1.42l3.39-3.48-1.86-3.24h1.27l1.37,2.43,2.33-2.43h1.39Z" style="fill: rgb(255, 255, 255); transform-origin: 215.825px 239.84px;" id="elvn35ohe6zh" class="animable"></path><path d="M222.08,237.19a11,11,0,0,0-.55-3.4h1.12a10.34,10.34,0,0,1,.59,3.46,13.69,13.69,0,0,1-2.85,8.41h-1.24A14.19,14.19,0,0,0,222.08,237.19Z" style="fill: rgb(255, 255, 255); transform-origin: 221.195px 239.725px;" id="el3x0elz96dyb" class="animable"></path><path d="M232.36,233.79l-1.88,9.41h-1.16l.16-.82a3.33,3.33,0,0,1-2.37.9,2.78,2.78,0,0,1-3-2.91,3.76,3.76,0,0,1,3.81-4,2.55,2.55,0,0,1,2.43,1.21l.76-3.84ZM230,239.37a1.77,1.77,0,0,0-2-1.89,2.65,2.65,0,0,0-2.63,2.84,1.79,1.79,0,0,0,2,1.89A2.64,2.64,0,0,0,230,239.37Z" style="fill: rgb(255, 255, 255); transform-origin: 228.231px 238.514px;" id="elrnz53fm14bl" class="animable"></path><path d="M236.47,239.81l1.95,3.39h-1.29l-1.44-2.59-2.46,2.59h-1.42l3.38-3.48-1.85-3.24h1.27l1.37,2.43,2.33-2.43h1.38Z" style="fill: rgb(255, 255, 255); transform-origin: 235.75px 239.84px;" id="elx1q13cfmy6" class="animable"></path><path d="M254.74,242.36a1.45,1.45,0,0,1-.3.81l-1.06,1.91h-.8l.86-1.91a.81.81,0,0,1-.4-.71.89.89,0,0,1,.9-.92A.79.79,0,0,1,254.74,242.36Z" style="fill: rgb(255, 255, 255); transform-origin: 253.66px 243.31px;" id="elecaexkuoemo" class="animable"></path><path d="M178.66,244.16c0-6.58,2.35-13.66,6-18.12H186a31,31,0,0,0-6.09,18.17,22,22,0,0,0,1.1,6.84H179.8A21.5,21.5,0,0,1,178.66,244.16Z" style="fill: rgb(255, 255, 255); transform-origin: 182.33px 238.545px;" id="elw6zc767wbdc" class="animable"></path><path d="M188.38,250.27l.64-1a2.86,2.86,0,0,0,2.06.75c1.71,0,2.75-.85,3.15-2.89l3.5-17.36c.51-2.57,2-3.9,4.49-3.9a3.7,3.7,0,0,1,2.67.93l-.64,1a2.87,2.87,0,0,0-2.06-.77c-1.74,0-2.75.88-3.15,2.91l-3.5,17.34c-.51,2.59-2,3.93-4.49,3.93A3.68,3.68,0,0,1,188.38,250.27Z" style="fill: rgb(255, 255, 255); transform-origin: 196.635px 238.54px;" id="elugzhd54iqmg" class="animable"></path><path d="M249.17,232.88a22,22,0,0,0-1.09-6.84h1.2a21.45,21.45,0,0,1,1.15,6.89c0,6.58-2.35,13.66-6,18.12h-1.34A31,31,0,0,0,249.17,232.88Z" style="fill: rgb(255, 255, 255); transform-origin: 246.76px 238.545px;" id="elgmb5mhmvusb" class="animable"></path><path d="M187.76,255.58c0-1.51.86-2.85,2.21-2.85a1.42,1.42,0,0,1,1.47,1.6c0,1.51-.86,2.85-2.2,2.85A1.42,1.42,0,0,1,187.76,255.58Zm3.06-1.24c0-.69-.34-1.06-.9-1.06-1,0-1.53,1.28-1.53,2.29,0,.69.33,1.06.9,1.06C190.27,256.63,190.82,255.35,190.82,254.34Z" style="fill: rgb(255, 255, 255); transform-origin: 189.6px 254.955px;" id="elljanbcq6gta" class="animable"></path><path d="M204,223.37a1.11,1.11,0,0,0,0,.17.39.39,0,0,0,.44.42.83.83,0,0,0,.47-.16l.13.45a1.34,1.34,0,0,1-.77.21.79.79,0,0,1-.87-.83,1.14,1.14,0,0,1,0-.25l.36-1.77h-.56l.09-.49h.57l.14-.72h.6l-.14.72h.94l-.1.49h-.94Z" style="fill: rgb(255, 255, 255); transform-origin: 204.3px 222.432px;" id="elw2k8gqdmoz" class="animable"></path><path d="M105,276a5.2,5.2,0,0,1,5.44-5.34,3.82,3.82,0,0,1,3.26,1.38l-.91.79a2.9,2.9,0,0,0-2.43-1,4,4,0,0,0-4.09,4.13c0,1.61,1,2.69,3.06,2.69a3.66,3.66,0,0,0,2.69-1.05l.73.84a4.65,4.65,0,0,1-3.51,1.34C106.52,279.69,105,278.17,105,276Z" style="fill: rgb(255, 255, 255); transform-origin: 109.349px 275.217px;" id="el44vu3qcqnhr" class="animable"></path><path d="M125.25,270.71l-1.77,8.88h-1.22l1.3-6.42-4.2,5.34h-.58l-2.22-5.46-1.31,6.54H114l1.78-8.88h1l2.47,6.25,4.85-6.25Z" style="fill: rgb(255, 255, 255); transform-origin: 119.625px 275.15px;" id="ele3sikrpgtg8" class="animable"></path><path d="M134.27,276.81c0,1.84-1.53,2.78-3.85,2.78h-4.27l1.77-8.88h3.93c1.78,0,2.8.67,2.8,2A2.4,2.4,0,0,1,133,275,1.78,1.78,0,0,1,134.27,276.81Zm-1.25,0c0-.9-.66-1.21-1.85-1.21h-3l-.58,2.95h2.89C132.1,278.56,133,278,133,276.82ZM129,271.74l-.57,2.84H131c1.4,0,2.34-.57,2.34-1.71,0-.78-.65-1.13-1.75-1.13Z" style="fill: rgb(255, 255, 255); transform-origin: 130.4px 275.15px;" id="elzihmwqme38" class="animable"></path><path d="M135.85,276a5.19,5.19,0,0,1,5.39-5.34c2.65,0,4.18,1.52,4.18,3.74a5.19,5.19,0,0,1-5.4,5.34C137.37,279.69,135.85,278.17,135.85,276Zm8.29-1.52c0-1.6-1-2.69-3-2.69a4,4,0,0,0-4,4.13c0,1.6,1,2.69,3,2.69A4,4,0,0,0,144.14,274.43Z" style="fill: rgb(255, 255, 255); transform-origin: 140.635px 275.2px;" id="elcirc8m4csb" class="animable"></path><path d="M150,276.15h5.67l-.21,1h-5.67Zm.59-3h5.67l-.2,1h-5.67Z" style="fill: rgb(255, 255, 255); transform-origin: 153.025px 275.15px;" id="elz8h78smq4a" class="animable"></path><path d="M173.12,276.7l1.62,2.89H173.4l-1.55-2.71h-2.61l-.53,2.71h-1.28l1.77-8.88h3.31c2.08,0,3.27,1,3.27,2.6A3.28,3.28,0,0,1,173.12,276.7Zm1.4-3.27c0-1.07-.76-1.61-2.12-1.61h-2.14l-.8,4h2.19C173.46,275.8,174.52,275,174.52,273.43Z" style="fill: rgb(255, 255, 255); transform-origin: 171.607px 275.15px;" id="ell0zir1l0wmm" class="animable"></path><path d="M177,278.59a13.69,13.69,0,0,1,2.85-8.41h1.24a14.18,14.18,0,0,0-2.92,8.47,11,11,0,0,0,.54,3.4h-1.12A10.34,10.34,0,0,1,177,278.59Z" style="fill: rgb(255, 255, 255); transform-origin: 179.045px 276.115px;" id="elsvvh52gz55" class="animable"></path><path d="M182.56,277.45a1.45,1.45,0,0,0,0,.35.77.77,0,0,0,.89.84,1.7,1.7,0,0,0,1-.32l.26.93a2.8,2.8,0,0,1-1.56.42,1.63,1.63,0,0,1-1.78-1.69,2.37,2.37,0,0,1,.05-.51l.72-3.6h-1.14l.19-1h1.16l.29-1.47h1.22l-.3,1.47h1.93l-.2,1h-1.93Z" style="fill: rgb(255, 255, 255); transform-origin: 183.245px 275.539px;" id="el2epg76rp0e7" class="animable"></path><path d="M188.2,273.58a11,11,0,0,0-.54-3.4h1.11a10.09,10.09,0,0,1,.6,3.46,13.69,13.69,0,0,1-2.85,8.41h-1.25A14.13,14.13,0,0,0,188.2,273.58Z" style="fill: rgb(255, 255, 255); transform-origin: 187.32px 276.115px;" id="el9ht5k35vzfs" class="animable"></path><path d="M198.49,270.18l-1.88,9.41h-1.17l.17-.83a3.37,3.37,0,0,1-2.37.91,2.78,2.78,0,0,1-3-2.91,3.76,3.76,0,0,1,3.81-4,2.56,2.56,0,0,1,2.43,1.22l.76-3.84Zm-2.36,5.58a1.77,1.77,0,0,0-2-1.89,2.65,2.65,0,0,0-2.63,2.84,1.78,1.78,0,0,0,2,1.89A2.64,2.64,0,0,0,196.13,275.76Z" style="fill: rgb(255, 255, 255); transform-origin: 194.361px 274.91px;" id="eltom0bjvdoa" class="animable"></path><path d="M200.9,277.45a1.45,1.45,0,0,0,0,.35.77.77,0,0,0,.89.84,1.7,1.7,0,0,0,1-.32l.26.93a2.8,2.8,0,0,1-1.56.42,1.63,1.63,0,0,1-1.78-1.69,2.37,2.37,0,0,1,.05-.51l.72-3.6h-1.14l.19-1h1.16l.29-1.47h1.22l-.3,1.47h1.93l-.2,1h-1.93Z" style="fill: rgb(255, 255, 255); transform-origin: 201.585px 275.539px;" id="elt0rs8vohc5q" class="animable"></path><path d="M204.06,278.85a.89.89,0,0,1,.9-.92.79.79,0,0,1,.8.82.89.89,0,0,1-.89.92A.8.8,0,0,1,204.06,278.85Z" style="fill: rgb(255, 255, 255); transform-origin: 204.91px 278.8px;" id="eloocvh5w8q2" class="animable"></path><path d="M153.49,286.66l.64-1a2.87,2.87,0,0,0,2.06.75c1.71,0,2.75-.86,3.15-2.89l3.5-17.36c.51-2.57,2-3.9,4.49-3.9a3.7,3.7,0,0,1,2.67.93l-.64,1a2.87,2.87,0,0,0-2.06-.77c-1.73,0-2.75.88-3.15,2.91l-3.5,17.34c-.51,2.59-2,3.92-4.49,3.92A3.67,3.67,0,0,1,153.49,286.66Z" style="fill: rgb(255, 255, 255); transform-origin: 161.745px 274.925px;" id="eli1k4963mvde" class="animable"></path><path d="M151.45,292c0-1.51.85-2.85,2.2-2.85a1.41,1.41,0,0,1,1.47,1.6c0,1.51-.86,2.85-2.2,2.85A1.41,1.41,0,0,1,151.45,292Zm3.05-1.24c0-.69-.34-1.06-.9-1.06-1,0-1.53,1.28-1.53,2.29,0,.69.34,1.06.9,1.06C154,293,154.5,291.74,154.5,290.73Z" style="fill: rgb(255, 255, 255); transform-origin: 153.285px 291.375px;" id="elge90no56c77" class="animable"></path><path d="M172.16,258.48a1.35,1.35,0,0,1-1.39,1.38,1.31,1.31,0,0,1-1.28-.82,1.76,1.76,0,0,1-1.45.82,1,1,0,0,1-1.13-1.07,1.34,1.34,0,0,1,1.39-1.38,1.32,1.32,0,0,1,1.28.82,1.73,1.73,0,0,1,1.45-.82A1,1,0,0,1,172.16,258.48Zm-2.88.14c-.2-.4-.43-.75-1-.75a.86.86,0,0,0-.91.86.64.64,0,0,0,.71.66A1.43,1.43,0,0,0,169.28,258.62Zm2.39-.09a.65.65,0,0,0-.72-.66,1.47,1.47,0,0,0-1.17.77c.21.4.43.75,1,.75A.86.86,0,0,0,171.67,258.53Z" style="fill: rgb(255, 255, 255); transform-origin: 169.535px 258.635px;" id="elvclp565pbxi" class="animable"></path></g></g></g><g id="freepik--speech-bubble--inject-116" class="animable animator-active" style="transform-origin: 357.135px 148.85px;"><path d="M376,113H338.27a11.62,11.62,0,0,0-11.62,11.62v38.09a11.62,11.62,0,0,0,11.62,11.62H353.2l3.94,10.37,3.94-10.37H376a11.62,11.62,0,0,0,11.62-11.62V124.66A11.62,11.62,0,0,0,376,113Z" style="fill: rgb(64, 123, 255); transform-origin: 357.135px 148.85px;" id="el3ufqp23hjew" class="animable"></path><g id="el0n3bi74d841"><path d="M376,113H338.27a11.62,11.62,0,0,0-11.62,11.62v38.09a11.62,11.62,0,0,0,11.62,11.62H353.2l3.94,10.37,3.94-10.37H376a11.62,11.62,0,0,0,11.62-11.62V124.66A11.62,11.62,0,0,0,376,113Z" style="fill: rgb(255, 255, 255); opacity: 0.4; transform-origin: 357.135px 148.85px;" class="animable"></path></g><path d="M363.6,163.7c0,2.05-2.78,3.73-6.25,3.76s-6.28-1.62-6.3-3.66,2.78-3.73,6.25-3.76S363.58,161.66,363.6,163.7Z" style="fill: rgb(38, 50, 56); transform-origin: 357.325px 163.75px;" id="el6grsosqktuo" class="animable"></path><g id="el8efx3pjfsdv"><path d="M363.6,163.7c0,2.05-2.78,3.73-6.25,3.76s-6.28-1.62-6.3-3.66,2.78-3.73,6.25-3.76S363.58,161.66,363.6,163.7Z" style="fill: rgb(255, 255, 255); opacity: 0.4; transform-origin: 357.325px 163.75px;" class="animable"></path></g><path d="M366.26,156.89a1.81,1.81,0,0,0,.55-1.23c0-2-4.3-3.61-9.57-3.57s-9.54,1.7-9.52,3.71a1.8,1.8,0,0,0,.57,1.22,1.51,1.51,0,0,0-.16.64,1.81,1.81,0,0,0,.59,1.21,1.41,1.41,0,0,0-.17.66,1.7,1.7,0,0,0,.6,1.19,1.25,1.25,0,0,0-.18.67,1.64,1.64,0,0,0,.61,1.18,1.34,1.34,0,0,0-.2.68c0,1.67,3.58,3,8,3s7.93-1.42,7.92-3.09a1.29,1.29,0,0,0-.21-.67,1.72,1.72,0,0,0,.6-1.2,1.34,1.34,0,0,0-.2-.66,1.67,1.67,0,0,0,.58-1.2,1.41,1.41,0,0,0-.17-.66,1.74,1.74,0,0,0,.56-1.21A1.48,1.48,0,0,0,366.26,156.89Z" style="fill: rgb(38, 50, 56); transform-origin: 357.265px 159.17px;" id="elujimcvjgfta" class="animable"></path><path d="M374,139a16.89,16.89,0,1,0-27.51,13.26,2.79,2.79,0,0,1,1,2.39.66.66,0,0,0,0,.14c0,2,4.37,3.66,9.72,3.62s9.69-1.72,9.67-3.76a.66.66,0,0,0,0-.14,2.8,2.8,0,0,1,1-2.42A16.87,16.87,0,0,0,374,139Z" style="fill: rgb(64, 123, 255); transform-origin: 357.11px 140.324px;" id="el9wknxye1mgl" class="animable"></path><g id="eliefcidik4d"><path d="M374,139a16.89,16.89,0,1,0-27.51,13.26,2.79,2.79,0,0,1,1,2.39.66.66,0,0,0,0,.14c0,2,4.37,3.66,9.72,3.62s9.69-1.72,9.67-3.76a.66.66,0,0,0,0-.14,2.8,2.8,0,0,1,1-2.42A16.87,16.87,0,0,0,374,139Z" style="fill: rgb(255, 255, 255); opacity: 0.9; transform-origin: 357.11px 140.324px;" class="animable"></path></g><g id="el5ty1o3koaby"><g style="isolation: isolate; opacity: 0.2; transform-origin: 357.18px 148.878px;" class="animable"><path d="M353.79,156.07a.62.62,0,0,1-.61-.6c0-5.83-4.75-10.27-4.8-10.32a.6.6,0,0,1-.15-.66.59.59,0,0,1,.55-.38l2.78,0,.85-2a.6.6,0,0,1,1.09-.06l1.59,2.87,1.54-2.9a.68.68,0,0,1,.55-.32.63.63,0,0,1,.53.34l1.58,3.24,1.52-3.26a.65.65,0,0,1,.56-.35.63.63,0,0,1,.55.37l.87,2,2.78,0h0a.6.6,0,0,1,.58.44.62.62,0,0,1-.27.69c-4,2.34-5.08,10.31-5.09,10.39a.6.6,0,0,1-.68.52.61.61,0,0,1-.52-.68c0-.31.95-6.8,4.24-10.14H362.4a.59.59,0,0,1-.56-.36l-.5-1.16-1.5,3.19a.61.61,0,0,1-.54.35.62.62,0,0,1-.55-.34l-1.61-3.3-1.51,2.83a.6.6,0,0,1-.53.32c-.22.08-.43-.12-.53-.31L353,143.68l-.51,1.24a.61.61,0,0,1-.56.37h-1.79c1.5,1.74,4.18,5.48,4.21,10.16a.6.6,0,0,1-.6.61Z" id="el13a4yc079k7" class="animable" style="transform-origin: 357.18px 148.878px;"></path></g></g></g><g id="freepik--Character--inject-116" class="animable" style="transform-origin: 248.886px 306.498px;"><path d="M308.89,314.76c.77-.13.76-.19.42.05a75.37,75.37,0,0,0-7.19,5.08c-17.9,14.32-42.31,33-67.11,19.43-11.37-5.4-17.79-39.1-19.55-51.08-.68-4.93-1.27-9.76-1.51-14.86-.39-10.78,13.62-15,19.26-5.94C237.5,274.49,243,285,247,292.33c3.63,6.57,6.93,13.11,11.22,19a8.41,8.41,0,0,0,1.18,1.31l-7.39-6c.11-.22-.28-.44-.08-.61s.93-.43,2.1-1.08c8.31-4.69,14.43-11,22.67-17.43a79.69,79.69,0,0,1,14.13-9.37,39,39,0,0,1,8.42-3,20.42,20.42,0,1,1,9.63,39.69Z" style="fill: rgb(64, 123, 255); transform-origin: 269.217px 303.26px;" id="elu8dwx3lafua" class="animable"></path><path d="M219.68,272.93l9.22-6.64c6.6-10-7.67-16.22-7.67-16.22l-8-8.51c-1.91-2-5.21-2.06-7.8-.23l-6.48,4.59c-3,2.09-3.91,5.93-2.12,8.5l6.43,8.51a12.46,12.46,0,0,0,4.58,4Z" style="fill: rgb(228, 137, 123); transform-origin: 213.28px 256.468px;" id="eli5xbq2r4amb" class="animable"></path><path d="M234.74,267.58l-2.42-6.11c-8.26,5.93-19.71,9.22-19.71,9.22l-1.75,8S227.66,279.14,234.74,267.58Z" style="fill: rgb(64, 123, 255); transform-origin: 222.8px 270.081px;" id="elucfcrbmmv9" class="animable"></path><g id="elpw1cz773cwc"><path d="M234.74,267.58l-2.42-6.11c-8.26,5.93-19.71,9.22-19.71,9.22l-1.75,8S227.66,279.14,234.74,267.58Z" style="fill: rgb(255, 255, 255); opacity: 0.5; transform-origin: 222.8px 270.081px;" class="animable"></path></g><g id="elez6jxwoe93"><path d="M286.83,331.38a81.59,81.59,0,0,1-18.53,9.85A46,46,0,0,1,253.72,344a35.61,35.61,0,0,1-4-.14c10.1-27.84,38.85-39.51,38.85-39.51A48.29,48.29,0,0,1,286.83,331.38Z" style="opacity: 0.2; transform-origin: 269.727px 324.179px;" class="animable"></path></g><path d="M394.38,402.27c1.82-25.95,2.69-61.19,10.74-91a25.31,25.31,0,0,0-19-31.49c-22.79-4.78-52.41-7.05-74.76-6.24-8.79.32-18.23,4.58-21.05,12.92C277.36,324.82,256.82,356,253,399L329,402.27Z" style="fill: rgb(64, 123, 255); transform-origin: 329.52px 337.824px;" id="el6g40heg6vi" class="animable"></path><path d="M331.61,289c14.44,2.28,28.35-8.74,35.6-12.3-6.79-5.91-2.44-15.49-3.35-20.75-.39-2.32-.49-3.81-.49-3.81l-32.7,8.36c1.05,4,.88,7.17-.31,10-3.29.8-6.47,4-7.56,6.28a.78.78,0,0,1-.11.2C320.34,281.77,317.38,286.77,331.61,289Z" style="fill: rgb(228, 137, 123); transform-origin: 343.963px 270.724px;" id="el6q4o0c8k0za" class="animable"></path><g id="el4ew6hdk94m9"><path d="M322.69,277c14.05,7.63,37.19-8.57,41.17-21-.39-2.32-.49-3.81-.49-3.81l-32.7,8.36c1.05,4,.88,7.17-.31,10-3.29.8-6.47,4-7.56,6.28A.78.78,0,0,1,322.69,277Z" style="opacity: 0.2; transform-origin: 343.275px 265.577px;" class="animable"></path></g><path d="M330.75,288.88l6-4.29,8,5.13S339.59,293.94,330.75,288.88Z" style="fill: rgb(64, 123, 255); transform-origin: 337.75px 287.98px;" id="elc7jvdvrgnki" class="animable"></path><g id="eliay45tdn4nq"><path d="M330.75,288.88l6-4.29,8,5.13S339.59,293.94,330.75,288.88Z" style="fill: rgb(255, 255, 255); opacity: 0.5; transform-origin: 337.75px 287.98px;" class="animable"></path></g><path d="M364.09,272.72s-11.91,13.11-27.35,11.87c9,5.49,10.43,16,10.43,16s19.28-3.5,23-23.89A8.57,8.57,0,0,0,364.09,272.72Z" style="fill: rgb(64, 123, 255); transform-origin: 353.455px 286.655px;" id="elwma9bpyckyi" class="animable"></path><path d="M330.75,288.88l-6.73-7-8.63,1.49S321.86,291.66,330.75,288.88Z" style="fill: rgb(64, 123, 255); transform-origin: 323.07px 285.665px;" id="el9lfacd6kjld" class="animable"></path><g id="elc3pzhysj1vm"><path d="M330.75,288.88l-6.73-7-8.63,1.49S321.86,291.66,330.75,288.88Z" style="fill: rgb(255, 255, 255); opacity: 0.5; transform-origin: 323.07px 285.665px;" class="animable"></path></g><path d="M330.37,270.47s-6,6.31-6.35,11.38c-7.24,1.15-10.77,11.47-10.77,11.47S312,277.75,323.38,270.9C326.15,269.41,330.37,270.47,330.37,270.47Z" style="fill: rgb(64, 123, 255); transform-origin: 321.79px 281.712px;" id="elefw31406ktt" class="animable"></path><g id="el5cmkziiu1em"><path d="M364.09,272.72s-11.91,13.11-27.35,11.87c9,5.49,10.43,16,10.43,16s19.28-3.5,23-23.89A8.57,8.57,0,0,0,364.09,272.72Z" style="fill: rgb(255, 255, 255); opacity: 0.8; transform-origin: 353.455px 286.655px;" class="animable"></path></g><g id="eluah03cgxohh"><path d="M330.37,270.47s-6,6.31-6.35,11.38c-7.24,1.15-10.77,11.47-10.77,11.47S312,277.75,323.38,270.9C326.15,269.41,330.37,270.47,330.37,270.47Z" style="fill: rgb(255, 255, 255); opacity: 0.8; transform-origin: 321.79px 281.712px;" class="animable"></path></g><path d="M321.79,233.36l-.13,0-7-1.64a.55.55,0,1,1,.26-1.07l7,1.64a.56.56,0,0,1,.41.66A.56.56,0,0,1,321.79,233.36Z" style="fill: rgb(38, 50, 56); transform-origin: 318.291px 231.997px;" id="elasppqqsdxk8" class="animable"></path><path d="M317.73,222.19c-.64,7.62,1.68,15.93,8,13.71,2.71-1,4.09-3.5,4.69-6.65,1.43-7.59-1.77-18.62-1.77-18.62s-3.69-4.15-8.28,2.51C319,215.26,318,218.65,317.73,222.19Z" style="fill: rgb(38, 50, 56); transform-origin: 324.208px 222.809px;" id="elkplvvsoy617" class="animable"></path><g id="elbl9w94eoo3s"><path d="M317.73,222.19c-.64,7.62,1.68,15.93,8,13.71,2.71-1,4.09-3.5,4.69-6.65a60.36,60.36,0,0,0-5.38-7.82S322.62,219.16,317.73,222.19Z" style="fill: rgb(255, 255, 255); opacity: 0.5; transform-origin: 324.024px 228.439px;" class="animable"></path></g><path d="M339.7,208.79c18.31-3.58,33.66,11.92,29.73,28.31s-7,27.45-18.52,32.79c-22.92,10.59-33.72-.44-35.15-17.71C314.48,236.63,321.12,212.42,339.7,208.79Z" style="fill: rgb(228, 137, 123); transform-origin: 342.828px 241.156px;" id="el44naur00tw8" class="animable"></path><g id="elxvoweokg3vr"><path d="M342.55,238.15s3.74-.88,6.28,1.08A16.44,16.44,0,0,1,342.55,238.15Z" style="opacity: 0.2; transform-origin: 345.69px 238.594px;" class="animable"></path></g><g id="el9y18okvvasn"><path d="M342.4,239.66s3.5-.08,5.26,2.37A13.48,13.48,0,0,1,342.4,239.66Z" style="opacity: 0.2; transform-origin: 345.03px 240.845px;" class="animable"></path></g><path d="M326.14,217c1.67,7.45,16.19,1.82,26.6,1.61a5.53,5.53,0,0,1,5.54,6.75v0a5.43,5.43,0,0,1-.91,2.09c-4.11,5.82-.15,11.2-2.34,14.6-5.08,7.88,1.53,11,11.76,8.93a8.21,8.21,0,0,0,4-1.54c5.21-.9,8.24-5.81,9.46-12.91a54.34,54.34,0,0,0,.52-12.21c-.74-13.24-19.05-22.46-19.05-22.46s-16.71-10.14-27.4-2S326.14,217,326.14,217Z" style="fill: rgb(38, 50, 56); transform-origin: 353.394px 224.15px;" id="el7r6qea6h1rh" class="animable"></path><path d="M339.58,238.25c-.24,1.46-1.21,2.5-2.15,2.33s-1.53-1.48-1.29-2.93,1.21-2.49,2.16-2.32S339.82,236.8,339.58,238.25Z" style="fill: rgb(38, 50, 56); transform-origin: 337.861px 237.955px;" id="el2nscoya8tmb" class="animable"></path><path d="M322.53,235.54c-.24,1.45-1.21,2.5-2.16,2.33s-1.52-1.48-1.28-2.93,1.21-2.49,2.16-2.33S322.77,234.09,322.53,235.54Z" style="fill: rgb(38, 50, 56); transform-origin: 320.81px 235.241px;" id="el244xq3vxdrb" class="animable"></path><path d="M345.3,235.05a.93.93,0,0,0,.44,0,.86.86,0,0,0,.62-1.05,8.64,8.64,0,0,0-5.1-6.07.85.85,0,0,0-1.09.53.88.88,0,0,0,.54,1.1h0a7,7,0,0,1,4,4.85A.87.87,0,0,0,345.3,235.05Z" style="fill: rgb(38, 50, 56); transform-origin: 343.257px 231.479px;" id="el6v0nwqa3z8o" class="animable"></path><path d="M317.08,228.87a.84.84,0,0,0,.74-.33,6.81,6.81,0,0,1,5.57-2.79.87.87,0,0,0,.13-1.73,8.52,8.52,0,0,0-7.07,3.46.86.86,0,0,0,.16,1.21A.83.83,0,0,0,317.08,228.87Z" style="fill: rgb(38, 50, 56); transform-origin: 320.265px 226.445px;" id="el95h4awhkhlq" class="animable"></path><g id="elwvnb38hnytl"><path d="M355,242c-5.08,7.88,1.53,11,11.76,8.93a8.21,8.21,0,0,0,4-1.54c5.21-.9,8.24-5.81,9.46-12.91-9.42-1.53-15.56-9.05-15.92-9.48a5.94,5.94,0,0,0,1.72,3.64c-5.9-1.21-7.58-5-7.75-5.33a5.43,5.43,0,0,1-.91,2.09C353.25,233.26,357.21,238.64,355,242Z" style="fill: rgb(255, 255, 255); opacity: 0.5; transform-origin: 366.735px 238.431px;" class="animable"></path></g><path d="M328.79,235.62l-1.12,12.31s-4.06.59-6.19-1.79C323.42,240,328.79,235.62,328.79,235.62Z" style="fill: rgb(222, 87, 83); transform-origin: 325.135px 241.807px;" id="el2d6x2ktazfa" class="animable"></path><path d="M326.38,256.57h-.75a.81.81,0,0,1-.78-.87.81.81,0,0,1,.86-.78c.07,0,7,.3,10.38-2.66a.83.83,0,1,1,1.09,1.24C334,256.3,328.41,256.57,326.38,256.57Z" style="fill: rgb(38, 50, 56); transform-origin: 331.189px 254.281px;" id="eluw2growpvtd" class="animable"></path><path d="M331.21,234.37a.55.55,0,0,1-.35-.12,4.4,4.4,0,0,0-4-.57.55.55,0,0,1-.34-1.05,5.5,5.5,0,0,1,5,.77.54.54,0,0,1,.08.77A.55.55,0,0,1,331.21,234.37Z" style="fill: rgb(38, 50, 56); transform-origin: 328.932px 233.356px;" id="elryt2af5qykb" class="animable"></path><path d="M368.46,244.39h-.08a.55.55,0,0,1-.47-.62l.06-.34a3.37,3.37,0,0,0-2.84-3.82l-17.25-3a.55.55,0,1,1,.19-1.08l17.24,3a4.45,4.45,0,0,1,2.91,1.76,4.4,4.4,0,0,1,.83,3.31l-.05.34A.55.55,0,0,1,368.46,244.39Z" style="fill: rgb(38, 50, 56); transform-origin: 358.242px 239.951px;" id="el460s3as5y4l" class="animable"></path><path d="M320.38,241.75a3.12,3.12,0,0,1-.52,0l-2.68-.39c-1.58-.24-2.72-1.88-2.78-4l-.16-6.14a.56.56,0,0,1,.23-.46c.08-.06,2-1.46,6.4-.81a10.12,10.12,0,0,1,5.86,2.6.54.54,0,0,1,.11.57L325,237.89C324.06,240.27,322.26,241.75,320.38,241.75Zm-5-10.27.15,5.81c0,1.55.82,2.79,1.84,2.94l2.68.4c1.55.22,3.12-1,3.93-3.13l1.73-4.47a10.07,10.07,0,0,0-5-2A9.18,9.18,0,0,0,315.35,231.48Z" style="fill: rgb(38, 50, 56); transform-origin: 320.559px 235.77px;" id="el50d0fmbh6x8" class="animable"></path><path d="M341.84,244.92a4,4,0,0,1-.69,0l-3.79-.56A6.42,6.42,0,0,1,332,239l-.85-5.22a.55.55,0,0,1,.34-.6c.13,0,3.19-1.21,8.68-.39,6,.89,8.15,2.84,8.23,2.92a.56.56,0,0,1,.14.61l-2.38,5.76A4.62,4.62,0,0,1,341.84,244.92Zm-9.58-10.87.78,4.75a5.3,5.3,0,0,0,4.48,4.42l3.8.57a3.54,3.54,0,0,0,3.78-2.15l2.21-5.37c-.73-.51-2.91-1.75-7.35-2.41A19.5,19.5,0,0,0,332.26,234.05Z" style="fill: rgb(38, 50, 56); transform-origin: 339.86px 238.72px;" id="elrjft0gqvly" class="animable"></path><path d="M373.21,251.94a14.88,14.88,0,0,1-9.94,5.64c-5.23.6-7.07-4.28-5-8.79,1.9-4.06,6.91-9.27,11.84-7.78S376.15,248.07,373.21,251.94Z" style="fill: rgb(228, 137, 123); transform-origin: 366.13px 249.19px;" id="eln4webs98si" class="animable"></path><g id="elp4wpp4hg2zm"><path d="M342.11,402.27h52.27c1.82-25.95,2.69-61.19,10.74-91L380.22,325s-1,24.15,4.09,40c0,0-27.48,7.91-46,14.77C325.81,384.37,334.84,395.47,342.11,402.27Z" style="opacity: 0.2; transform-origin: 368.607px 356.77px;" class="animable"></path></g><path d="M398,286.55a47,47,0,0,1,6.25,6.29,155.24,155.24,0,0,1,15.26,22.54,166.09,166.09,0,0,1,13.43,29.46c6.3,18.28,8.22,42.49-12,53.13-17.38,8.84-42.91,6-61.37,2.69-3.4-.67-6.57-1.38-10-2.29a10.29,10.29,0,0,1,1.48-20.17c12.21-1.91,24.85-3.45,36.12-6,4.73-1.06,10.39-2.47,14.25-4.5a3.7,3.7,0,0,0,1.32-1c.11-.16-.42-.12-1.5,1a9.68,9.68,0,0,0-1.13,1.48,7.67,7.67,0,0,0-.48.87c-.18.36-.2.26-.28-.15C397.76,361,393,352,388.42,343.61a215.64,215.64,0,0,0-15.94-24.68l-.83-1-.1-.13s0,0,0,0l.63.51c-20.32-17.9,4.07-48,25.78-31.68Z" style="fill: rgb(64, 123, 255); transform-origin: 389.59px 342.905px;" id="elwxmiuy1wtv" class="animable"></path><path d="M350.48,379.25,354,389.44c-.35,11.33-14.83,8.38-14.83,8.38l-7.55,1.39c-2.55.47-5.16-1.26-6.16-4.09L322.94,388c-1.14-3.24.22-6.74,3-7.75l6.29-2.27a11.77,11.77,0,0,1,5.73-.58Z" style="fill: rgb(228, 137, 123); transform-origin: 338.268px 388.281px;" id="elhvsthq9zfq6" class="animable"></path><path d="M359.21,402.27h1.92c.29-4.46.61-20.21-9.07-26.57l-7,2.81c5.66,8.45,6.93,19,6.93,19Z" style="fill: rgb(64, 123, 255); transform-origin: 353.146px 388.985px;" id="el0jlvz99uxaej" class="animable"></path><g id="elbgl3q30wwts"><path d="M359.21,402.27h1.92c.29-4.46.61-20.21-9.07-26.57l-7,2.81c5.66,8.45,6.93,19,6.93,19Z" style="fill: rgb(255, 255, 255); opacity: 0.5; transform-origin: 353.146px 388.985px;" class="animable"></path></g><rect x="66.44" y="398.36" width="362.11" height="17.94" style="fill: rgb(38, 50, 56); transform-origin: 247.495px 407.33px;" id="elbbdxah8dsct" class="animable"></rect><g id="eluobz7el7ej"><rect x="66.44" y="398.36" width="362.11" height="17.94" style="fill: rgb(255, 255, 255); opacity: 0.5; transform-origin: 247.495px 407.33px;" class="animable"></rect></g><rect x="60.51" y="396.64" width="373.98" height="6.94" rx="2.02" style="fill: rgb(38, 50, 56); transform-origin: 247.5px 400.11px;" id="elzixgc8w18r" class="animable"></rect><g id="el9oat73n35nk"><rect x="60.51" y="396.64" width="373.98" height="6.94" rx="2.02" style="fill: rgb(255, 255, 255); opacity: 0.6; transform-origin: 247.5px 400.11px;" class="animable"></rect></g></g><g id="freepik--Books--inject-116" class="animable" style="transform-origin: 172.115px 375.705px;"><g id="el6kn1mddy6b8"><rect x="75.47" y="355.7" width="50.4" height="11.88" style="fill: rgb(64, 123, 255); transform-origin: 100.67px 361.64px; transform: rotate(180deg);" class="animable"></rect></g><g id="elt3ic3p58hwg"><rect x="75.47" y="355.7" width="50.4" height="11.88" style="fill: rgb(255, 255, 255); isolation: isolate; opacity: 0.7; transform-origin: 100.67px 361.64px; transform: rotate(180deg);" class="animable"></rect></g><path d="M106.39,354.61h39.47a7,7,0,0,1,0,14.06H106.39V366.1h6a4.46,4.46,0,0,0,0-8.92h-6Z" style="fill: rgb(64, 123, 255); transform-origin: 129.64px 361.64px;" id="elpb0xqke0t4" class="animable"></path><g id="el18rqqfxqfgi"><g style="isolation: isolate; opacity: 0.4; transform-origin: 129.64px 361.64px;" class="animable"><path d="M106.39,354.61h39.47a7,7,0,0,1,0,14.06H106.39V366.1h6a4.46,4.46,0,0,0,0-8.92h-6Z" style="fill: rgb(255, 255, 255); transform-origin: 129.64px 361.64px;" id="ela7rccru10t" class="animable"></path></g></g><path d="M72.9,354.61h39.48a7,7,0,0,1,0,14.06H72.9V366.1h39.48a4.46,4.46,0,0,0,0-8.92H72.9Z" style="fill: rgb(64, 123, 255); transform-origin: 96.155px 361.64px;" id="elrmqvcoib3a" class="animable"></path><g id="eleaapcfhfot"><g style="isolation: isolate; opacity: 0.2; transform-origin: 96.155px 361.64px;" class="animable"><path d="M72.9,354.61h39.48a7,7,0,0,1,0,14.06H72.9V366.1h39.48a4.46,4.46,0,0,0,0-8.92H72.9Z" style="fill: rgb(255, 255, 255); transform-origin: 96.155px 361.64px;" id="el2wnxqecof1g" class="animable"></path></g></g><g id="elja1qi502jsj"><rect x="65.12" y="369.76" width="50.4" height="11.88" style="fill: rgb(64, 123, 255); transform-origin: 90.32px 375.7px; transform: rotate(180deg);" class="animable"></rect></g><g id="el9e69ajkys5a"><rect x="65.12" y="369.76" width="50.4" height="11.88" style="fill: rgb(255, 255, 255); isolation: isolate; opacity: 0.7; transform-origin: 90.32px 375.7px; transform: rotate(180deg);" class="animable"></rect></g><path d="M96,368.67h39.48a7,7,0,0,1,0,14.07H96v-2.58h6a4.46,4.46,0,1,0,0-8.91H96Z" style="fill: rgb(38, 50, 56); transform-origin: 119.257px 375.705px;" id="eladatrkz2d08" class="animable"></path><g id="elpu0usfc1xzg"><g style="opacity: 0.2; transform-origin: 119.257px 375.705px;" class="animable"><path d="M96,368.67h39.48a7,7,0,0,1,0,14.07H96v-2.58h6a4.46,4.46,0,1,0,0-8.91H96Z" style="fill: rgb(255, 255, 255); transform-origin: 119.257px 375.705px;" id="el8arj2ekv5sk" class="animable"></path></g></g><path d="M62.55,368.67H102a7,7,0,0,1,0,14.07H62.55v-2.58H102a4.46,4.46,0,1,0,0-8.91H62.55Z" style="fill: rgb(38, 50, 56); transform-origin: 85.7925px 375.705px;" id="el7yb4naig1is" class="animable"></path><g id="elm8s5g5s70l"><g style="isolation: isolate; opacity: 0.4; transform-origin: 85.7925px 375.705px;" class="animable"><path d="M62.55,368.67H102a7,7,0,0,1,0,14.07H62.55v-2.58H102a4.46,4.46,0,1,0,0-8.91H62.55Z" style="fill: rgb(255, 255, 255); transform-origin: 85.7925px 375.705px;" id="elnhwsoys22s" class="animable"></path></g></g><rect x="96.08" y="383.83" width="50.4" height="11.88" style="fill: rgb(64, 123, 255); transform-origin: 121.28px 389.77px;" id="elunz2orpt58p" class="animable"></rect><g id="elzrr8nifszlm"><rect x="96.08" y="383.83" width="50.4" height="11.88" style="fill: rgb(255, 255, 255); isolation: isolate; opacity: 0.7; transform-origin: 121.28px 389.77px;" class="animable"></rect></g><path d="M149.05,382.74H109.58a7,7,0,1,0,0,14.06h39.47v-2.57H109.58a4.46,4.46,0,1,1,0-8.92h39.47Z" style="fill: rgb(38, 50, 56); transform-origin: 125.8px 389.77px;" id="el4rwqaejjdos" class="animable"></path><path d="M115.57,382.74H76.1a7,7,0,1,0,0,14.06h39.47v-2.57h-6a4.46,4.46,0,1,1,0-8.92h6Z" style="fill: rgb(38, 50, 56); transform-origin: 92.32px 389.77px;" id="ell8xjs296iqi" class="animable"></path><g id="el698qd40o5bx"><g style="isolation: isolate; opacity: 0.4; transform-origin: 125.8px 389.77px;" class="animable"><path d="M149.05,382.74H109.58a7,7,0,1,0,0,14.06h39.47v-2.57H109.58a4.46,4.46,0,1,1,0-8.92h39.47Z" style="fill: rgb(255, 255, 255); transform-origin: 125.8px 389.77px;" id="elrulpmqbqf0n" class="animable"></path></g></g><path d="M280,391.14s-11.14-5.59-17.28-5.75h-58l3.56,11.11,24.85-.86L279,395Z" style="fill: rgb(64, 123, 255); transform-origin: 242.36px 390.945px;" id="elyva5g51vq6" class="animable"></path><g id="elor55575ulqj"><path d="M280,391.14s-11.14-5.59-17.28-5.75h-58l3.56,11.11,24.85-.86L279,395Z" style="fill: rgb(255, 255, 255); isolation: isolate; opacity: 0.7; transform-origin: 242.36px 390.945px;" class="animable"></path></g><path d="M189.11,391.69s6.52-5.44,14.44-6.23,10.68,5.43,10.68,5.43,3.76-5.17,9.69-5.5,18,5.75,18,5.75l-1,3.82-51.23.75Z" style="fill: rgb(64, 123, 255); transform-origin: 215.515px 390.544px;" id="eletyqy59p09i" class="animable"></path><g id="el48excejhcos"><path d="M189.11,391.69s6.52-5.44,14.44-6.23,10.68,5.43,10.68,5.43,3.76-5.17,9.69-5.5,18,5.75,18,5.75l-1,3.82-51.23.75Z" style="fill: rgb(255, 255, 255); isolation: isolate; opacity: 0.6; transform-origin: 215.515px 390.544px;" class="animable"></path></g><g id="eltsbvzfk1p5o"><polygon points="279.97 391.14 279.77 391.89 279.64 392.37 278.95 394.96 240.93 394.96 241.37 393.3 241.51 392.8 241.95 391.14 279.97 391.14" style="opacity: 0.2; transform-origin: 260.45px 393.05px;" class="animable"></polygon></g><g id="eld0nrrmv6n89"><g style="opacity: 0.2; transform-origin: 215.53px 389.971px;" class="animable"><path d="M240.93,391.59a65.31,65.31,0,0,0-6.75-2.54,32.65,32.65,0,0,0-7-1.53,13.89,13.89,0,0,0-6.89,1.43,26.79,26.79,0,0,0-6,3.8l-.19.16-.16-.18a17.59,17.59,0,0,0-5.14-4.06,11.45,11.45,0,0,0-3.09-1.07,9.91,9.91,0,0,0-3.26,0,30.37,30.37,0,0,0-6.32,2,59.36,59.36,0,0,0-6,2.93,57.6,57.6,0,0,1,5.91-3.14,28.32,28.32,0,0,1,6.35-2.16,9.66,9.66,0,0,1,3.39-.09,12,12,0,0,1,3.22,1.08,18.31,18.31,0,0,1,5.32,4.15l-.36,0a27,27,0,0,1,6.17-3.85,14.1,14.1,0,0,1,7.11-1.4,32.71,32.71,0,0,1,7.06,1.68A67,67,0,0,1,240.93,391.59Z" id="eldmpxvy5rjfl" class="animable" style="transform-origin: 215.53px 389.971px;"></path></g></g><g id="elyhk3dlymbrb"><g style="opacity: 0.2; transform-origin: 215.265px 391.463px;" class="animable"><path d="M190.49,393.05a44.39,44.39,0,0,1,5.78-2.21,28.7,28.7,0,0,1,6.09-1.21,17.55,17.55,0,0,1,6.2.62,18.34,18.34,0,0,1,5.67,2.6l-.25,0a39.42,39.42,0,0,1,6.32-2.29,19.48,19.48,0,0,1,6.67-.78,48.94,48.94,0,0,1,6.61,1.07q3.27.76,6.46,1.74c-2.15-.57-4.33-1.06-6.51-1.49a49.07,49.07,0,0,0-6.59-.93,19.79,19.79,0,0,0-6.52.84,41.85,41.85,0,0,0-6.23,2.28l-.13.06-.12-.09A18.86,18.86,0,0,0,202.39,390a29.73,29.73,0,0,0-6,1.06A44.77,44.77,0,0,0,190.49,393.05Z" id="elpqiijf5utt" class="animable" style="transform-origin: 215.265px 391.463px;"></path></g></g><g id="elbigefqe6ynd"><g style="opacity: 0.2; transform-origin: 215.53px 392.934px;" class="animable"><path d="M193.06,393.05A43,43,0,0,1,203.61,392a41,41,0,0,1,5.31.4,42.4,42.4,0,0,1,5.23,1H214c2-.35,4-.58,6-.79s4-.35,6-.41,4,0,6,.06a45.71,45.71,0,0,1,6,.79A58.15,58.15,0,0,0,226,392.6a105.37,105.37,0,0,0-11.89,1.28h-.06l0,0a45.39,45.39,0,0,0-5.16-1.06,51.61,51.61,0,0,0-10.54-.4A40.61,40.61,0,0,0,193.06,393.05Z" id="el49417an8nc6" class="animable" style="transform-origin: 215.53px 392.934px;"></path></g></g><g id="elo99qv1qho2k"><g style="opacity: 0.2; transform-origin: 261.49px 392.13px;" class="animable"><polygon points="279.77 391.89 279.64 392.37 243.21 392.13 279.77 391.89" id="elfzj0thsvi28" class="animable" style="transform-origin: 261.49px 392.13px;"></polygon></g></g><g id="elirc20x1pssa"><g style="opacity: 0.2; transform-origin: 258.805px 393.05px;" class="animable"><polygon points="276.24 393.05 241.37 393.3 241.51 392.8 276.24 393.05" id="el77fnza1pqyb" class="animable" style="transform-origin: 258.805px 393.05px;"></polygon></g></g><path d="M212.64,394.26s.2-3.09,1.59-3.37,1.29,3.37,1.29,3.37Z" style="fill: rgb(38, 50, 56); transform-origin: 214.081px 392.567px;" id="ele2vbgxrbcc" class="animable"></path><rect x="186.72" y="393.64" width="94.96" height="3" style="fill: rgb(38, 50, 56); transform-origin: 234.2px 395.14px;" id="elyj7sz08jeyj" class="animable"></rect><g id="elo2tb3c3mdbn"><rect x="186.72" y="393.64" width="94.96" height="3" style="fill: rgb(255, 255, 255); opacity: 0.2; transform-origin: 234.2px 395.14px;" class="animable"></rect></g><g id="el9crxaoe7f9"><rect x="243.7" y="393.64" width="37.98" height="3" style="opacity: 0.2; transform-origin: 262.69px 395.14px;" class="animable"></rect></g><path d="M151,376.07a11.87,11.87,0,0,1,3.08-8.49l1.88,1.66a15.62,15.62,0,0,0-3.76,6.83Z" style="fill: rgb(38, 50, 56); transform-origin: 153.475px 371.825px;" id="eld2zcsen45lu" class="animable"></path><path d="M162,393.33c-.19.25-.38.5-.58.73l-.07.07a6.4,6.4,0,0,1-4.66,2.51c-3.83,0-5.6-1.68-5.6-1.68a9.41,9.41,0,0,1-5.66,1.68c-6.33,0-10.36-12.87-8.11-18.1,1.7-3.94,4.43-5.57,7.2-5.71h0a9.74,9.74,0,0,1,7.08,2.87s6.37-5.44,11.12,0C166.78,380.32,165.42,388.69,162,393.33Z" style="fill: rgb(64, 123, 255); transform-origin: 150.954px 384.736px;" id="eli195yiefr7l" class="animable"></path><g id="el5x5b5nadu5w"><path d="M161.36,394.13a6.4,6.4,0,0,1-4.66,2.51c-3.83,0-5.6-1.68-5.6-1.68a9.41,9.41,0,0,1-5.66,1.68c-6.33,0-10.36-12.87-8.11-18.1,1.7-3.94,4.43-5.57,7.2-5.71-4.83.6-4.69,11.61-2,18s8.56,2.77,8.56,2.77a6.34,6.34,0,0,0,4.82,2.5A7.55,7.55,0,0,0,161.36,394.13Z" style="opacity: 0.2; transform-origin: 149.03px 384.737px;" class="animable"></path></g></g><defs>     <filter id="active" height="200%">         <feMorphology in="SourceAlpha" result="DILATED" operator="dilate" radius="2"></feMorphology>                <feFlood flood-color="#32DFEC" flood-opacity="1" result="PINK"></feFlood>        <feComposite in="PINK" in2="DILATED" operator="in" result="OUTLINE"></feComposite>        <feMerge>            <feMergeNode in="OUTLINE"></feMergeNode>            <feMergeNode in="SourceGraphic"></feMergeNode>        </feMerge>    </filter>    <filter id="hover" height="200%">        <feMorphology in="SourceAlpha" result="DILATED" operator="dilate" radius="2"></feMorphology>                <feFlood flood-color="#ff0000" flood-opacity="0.5" result="PINK"></feFlood>        <feComposite in="PINK" in2="DILATED" operator="in" result="OUTLINE"></feComposite>        <feMerge>            <feMergeNode in="OUTLINE"></feMergeNode>            <feMergeNode in="SourceGraphic"></feMergeNode>        </feMerge>            <feColorMatrix type="matrix" values="0   0   0   0   0                0   1   0   0   0                0   0   0   0   0                0   0   0   1   0 "></feColorMatrix>    </filter></defs></svg>